<svg width="411" height="200" viewBox="0 0 411 200" fill="none" xmlns="http://www.w3.org/2000/svg">
<g filter="url(#filter0_d_554_7225)">
<rect x="4.08984" y="0.820801" width="402.393" height="189.512" fill="white"/>
</g>
<line x1="4.08984" y1="42.8696" x2="406.483" y2="42.8695" stroke="#EBF0F3" stroke-width="0.831552"/>
<path d="M23.5127 25.4586V17.0586H26.9687C27.4967 17.0586 27.9607 17.1666 28.3607 17.3826C28.7687 17.5906 29.0847 17.8866 29.3087 18.2706C29.5407 18.6546 29.6567 19.1106 29.6567 19.6386V19.8066C29.6567 20.3266 29.5367 20.7826 29.2967 21.1746C29.0647 21.5586 28.7447 21.8586 28.3367 22.0746C27.9367 22.2826 27.4807 22.3866 26.9687 22.3866H25.0967V25.4586H23.5127ZM25.0967 20.9466H26.8127C27.1887 20.9466 27.4927 20.8426 27.7247 20.6346C27.9567 20.4266 28.0727 20.1426 28.0727 19.7826V19.6626C28.0727 19.3026 27.9567 19.0186 27.7247 18.8106C27.4927 18.6026 27.1887 18.4986 26.8127 18.4986H25.0967V20.9466ZM33.0143 25.6266C32.4223 25.6266 31.8903 25.5066 31.4183 25.2666C30.9463 25.0266 30.5743 24.6786 30.3023 24.2226C30.0303 23.7666 29.8943 23.2186 29.8943 22.5786V22.3866C29.8943 21.7466 30.0303 21.1986 30.3023 20.7426C30.5743 20.2866 30.9463 19.9386 31.4183 19.6986C31.8903 19.4586 32.4223 19.3386 33.0143 19.3386C33.6063 19.3386 34.1383 19.4586 34.6103 19.6986C35.0823 19.9386 35.4543 20.2866 35.7263 20.7426C35.9983 21.1986 36.1343 21.7466 36.1343 22.3866V22.5786C36.1343 23.2186 35.9983 23.7666 35.7263 24.2226C35.4543 24.6786 35.0823 25.0266 34.6103 25.2666C34.1383 25.5066 33.6063 25.6266 33.0143 25.6266ZM33.0143 24.2826C33.4783 24.2826 33.8623 24.1346 34.1663 23.8386C34.4703 23.5346 34.6223 23.1026 34.6223 22.5426V22.4226C34.6223 21.8626 34.4703 21.4346 34.1663 21.1386C33.8703 20.8346 33.4863 20.6826 33.0143 20.6826C32.5503 20.6826 32.1663 20.8346 31.8623 21.1386C31.5583 21.4346 31.4063 21.8626 31.4063 22.4226V22.5426C31.4063 23.1026 31.5583 23.5346 31.8623 23.8386C32.1663 24.1346 32.5503 24.2826 33.0143 24.2826ZM37.0499 25.4586V19.5066H38.5379V20.1786H38.7539C38.8419 19.9386 38.9859 19.7626 39.1859 19.6506C39.3939 19.5386 39.6339 19.4826 39.9059 19.4826H40.6259V20.8266H39.8819C39.4979 20.8266 39.1819 20.9306 38.9339 21.1386C38.6859 21.3386 38.5619 21.6506 38.5619 22.0746V25.4586H37.0499ZM43.6077 25.4586C43.2157 25.4586 42.8957 25.3386 42.6477 25.0986C42.4077 24.8506 42.2877 24.5226 42.2877 24.1146V20.7546H40.7997V19.5066H42.2877V17.6586H43.7997V19.5066H45.4317V20.7546H43.7997V23.8506C43.7997 24.0906 43.9117 24.2106 44.1357 24.2106H45.2877V25.4586H43.6077ZM47.0114 25.4586V20.7546H45.4994V19.5066H47.0114V18.4026C47.0114 17.9946 47.1314 17.6706 47.3714 17.4306C47.6194 17.1826 47.9394 17.0586 48.3314 17.0586H49.8914V18.3066H48.8594C48.6354 18.3066 48.5234 18.4266 48.5234 18.6666V19.5066H50.0834V20.7546H48.5234V25.4586H47.0114ZM53.4185 25.6266C52.8265 25.6266 52.2945 25.5066 51.8225 25.2666C51.3505 25.0266 50.9785 24.6786 50.7065 24.2226C50.4345 23.7666 50.2985 23.2186 50.2985 22.5786V22.3866C50.2985 21.7466 50.4345 21.1986 50.7065 20.7426C50.9785 20.2866 51.3505 19.9386 51.8225 19.6986C52.2945 19.4586 52.8265 19.3386 53.4185 19.3386C54.0105 19.3386 54.5425 19.4586 55.0145 19.6986C55.4865 19.9386 55.8585 20.2866 56.1305 20.7426C56.4025 21.1986 56.5385 21.7466 56.5385 22.3866V22.5786C56.5385 23.2186 56.4025 23.7666 56.1305 24.2226C55.8585 24.6786 55.4865 25.0266 55.0145 25.2666C54.5425 25.5066 54.0105 25.6266 53.4185 25.6266ZM53.4185 24.2826C53.8825 24.2826 54.2665 24.1346 54.5705 23.8386C54.8745 23.5346 55.0265 23.1026 55.0265 22.5426V22.4226C55.0265 21.8626 54.8745 21.4346 54.5705 21.1386C54.2745 20.8346 53.8905 20.6826 53.4185 20.6826C52.9545 20.6826 52.5705 20.8346 52.2665 21.1386C51.9625 21.4346 51.8105 21.8626 51.8105 22.4226V22.5426C51.8105 23.1026 51.9625 23.5346 52.2665 23.8386C52.5705 24.1346 52.9545 24.2826 53.4185 24.2826ZM57.4541 25.4586V17.0586H58.9661V25.4586H57.4541ZM60.1616 25.4586V19.5066H61.6736V25.4586H60.1616ZM60.9176 18.8106C60.6456 18.8106 60.4136 18.7226 60.2216 18.5466C60.0376 18.3706 59.9456 18.1386 59.9456 17.8506C59.9456 17.5626 60.0376 17.3306 60.2216 17.1546C60.4136 16.9786 60.6456 16.8906 60.9176 16.8906C61.1976 16.8906 61.4296 16.9786 61.6136 17.1546C61.7976 17.3306 61.8896 17.5626 61.8896 17.8506C61.8896 18.1386 61.7976 18.3706 61.6136 18.5466C61.4296 18.7226 61.1976 18.8106 60.9176 18.8106ZM65.7011 25.6266C65.1091 25.6266 64.5771 25.5066 64.1051 25.2666C63.6331 25.0266 63.2611 24.6786 62.9891 24.2226C62.7171 23.7666 62.5811 23.2186 62.5811 22.5786V22.3866C62.5811 21.7466 62.7171 21.1986 62.9891 20.7426C63.2611 20.2866 63.6331 19.9386 64.1051 19.6986C64.5771 19.4586 65.1091 19.3386 65.7011 19.3386C66.2931 19.3386 66.8251 19.4586 67.2971 19.6986C67.7691 19.9386 68.1411 20.2866 68.4131 20.7426C68.6851 21.1986 68.8211 21.7466 68.8211 22.3866V22.5786C68.8211 23.2186 68.6851 23.7666 68.4131 24.2226C68.1411 24.6786 67.7691 25.0266 67.2971 25.2666C66.8251 25.5066 66.2931 25.6266 65.7011 25.6266ZM65.7011 24.2826C66.1651 24.2826 66.5491 24.1346 66.8531 23.8386C67.1571 23.5346 67.3091 23.1026 67.3091 22.5426V22.4226C67.3091 21.8626 67.1571 21.4346 66.8531 21.1386C66.5571 20.8346 66.1731 20.6826 65.7011 20.6826C65.2371 20.6826 64.8531 20.8346 64.5491 21.1386C64.2451 21.4346 64.0931 21.8626 64.0931 22.4226V22.5426C64.0931 23.1026 64.2451 23.5346 64.5491 23.8386C64.8531 24.1346 65.2371 24.2826 65.7011 24.2826ZM72.2557 25.4586V17.0586H73.8397V20.5266H76.9597V17.0586H78.5437V25.4586H76.9597V21.9666H73.8397V25.4586H72.2557ZM82.4107 25.6266C81.8187 25.6266 81.2947 25.5026 80.8387 25.2546C80.3907 24.9986 80.0387 24.6426 79.7827 24.1866C79.5347 23.7226 79.4107 23.1786 79.4107 22.5546V22.4106C79.4107 21.7866 79.5347 21.2466 79.7827 20.7906C80.0307 20.3266 80.3787 19.9706 80.8267 19.7226C81.2747 19.4666 81.7947 19.3386 82.3867 19.3386C82.9707 19.3386 83.4787 19.4706 83.9107 19.7346C84.3427 19.9906 84.6787 20.3506 84.9187 20.8146C85.1587 21.2706 85.2787 21.8026 85.2787 22.4106V22.9266H80.9467C80.9627 23.3346 81.1147 23.6666 81.4027 23.9226C81.6907 24.1786 82.0427 24.3066 82.4587 24.3066C82.8827 24.3066 83.1947 24.2146 83.3947 24.0306C83.5947 23.8466 83.7467 23.6426 83.8507 23.4186L85.0867 24.0666C84.9747 24.2746 84.8107 24.5026 84.5947 24.7506C84.3867 24.9906 84.1067 25.1986 83.7547 25.3746C83.4027 25.5426 82.9547 25.6266 82.4107 25.6266ZM80.9587 21.7986H83.7427C83.7107 21.4546 83.5707 21.1786 83.3227 20.9706C83.0827 20.7626 82.7667 20.6586 82.3747 20.6586C81.9667 20.6586 81.6427 20.7626 81.4027 20.9706C81.1627 21.1786 81.0147 21.4546 80.9587 21.7986ZM87.9925 25.6266C87.5685 25.6266 87.1885 25.5546 86.8525 25.4106C86.5165 25.2586 86.2485 25.0426 86.0485 24.7626C85.8565 24.4746 85.7605 24.1266 85.7605 23.7186C85.7605 23.3106 85.8565 22.9706 86.0485 22.6986C86.2485 22.4186 86.5205 22.2106 86.8645 22.0746C87.2165 21.9306 87.6165 21.8586 88.0645 21.8586H89.6965V21.5226C89.6965 21.2426 89.6085 21.0146 89.4325 20.8386C89.2565 20.6546 88.9765 20.5626 88.5925 20.5626C88.2165 20.5626 87.9365 20.6506 87.7525 20.8266C87.5685 20.9946 87.4485 21.2146 87.3925 21.4866L86.0005 21.0186C86.0965 20.7146 86.2485 20.4386 86.4565 20.1906C86.6725 19.9346 86.9565 19.7306 87.3085 19.5786C87.6685 19.4186 88.1045 19.3386 88.6165 19.3386C89.4005 19.3386 90.0205 19.5346 90.4765 19.9266C90.9325 20.3186 91.1605 20.8866 91.1605 21.6306V23.8506C91.1605 24.0906 91.2725 24.2106 91.4965 24.2106H91.9765V25.4586H90.9685C90.6725 25.4586 90.4285 25.3866 90.2365 25.2426C90.0445 25.0986 89.9485 24.9066 89.9485 24.6666V24.6546H89.7205C89.6885 24.7506 89.6165 24.8786 89.5045 25.0386C89.3925 25.1906 89.2165 25.3266 88.9765 25.4466C88.7365 25.5666 88.4085 25.6266 87.9925 25.6266ZM88.2565 24.4026C88.6805 24.4026 89.0245 24.2866 89.2885 24.0546C89.5605 23.8146 89.6965 23.4986 89.6965 23.1066V22.9866H88.1725C87.8925 22.9866 87.6725 23.0466 87.5125 23.1666C87.3525 23.2866 87.2725 23.4546 87.2725 23.6706C87.2725 23.8866 87.3565 24.0626 87.5245 24.1986C87.6925 24.3346 87.9365 24.4026 88.2565 24.4026ZM92.602 25.4586V17.0586H94.114V25.4586H92.602ZM97.5895 25.4586C97.1975 25.4586 96.8775 25.3386 96.6295 25.0986C96.3895 24.8506 96.2695 24.5226 96.2695 24.1146V20.7546H94.7815V19.5066H96.2695V17.6586H97.7815V19.5066H99.4135V20.7546H97.7815V23.8506C97.7815 24.0906 97.8935 24.2106 98.1175 24.2106H99.2695V25.4586H97.5895ZM100.302 25.4586V17.0586H101.814V20.2386H102.03C102.094 20.1106 102.194 19.9826 102.33 19.8546C102.466 19.7266 102.646 19.6226 102.87 19.5426C103.102 19.4546 103.394 19.4106 103.746 19.4106C104.21 19.4106 104.614 19.5186 104.958 19.7346C105.31 19.9426 105.582 20.2346 105.774 20.6106C105.966 20.9786 106.062 21.4106 106.062 21.9066V25.4586H104.55V22.0266C104.55 21.5786 104.438 21.2426 104.214 21.0186C103.998 20.7946 103.686 20.6826 103.278 20.6826C102.814 20.6826 102.454 20.8386 102.198 21.1506C101.942 21.4546 101.814 21.8826 101.814 22.4346V25.4586H100.302Z" fill="#1B263A"/>
<path d="M62.0911 75.5069C63.9611 75.5069 65.3031 74.5499 65.5341 72.6579H64.1041C63.9501 73.7689 63.1801 74.3189 62.0911 74.3189C60.6391 74.3189 59.7921 73.2739 59.7921 71.5029V71.4149C59.7921 69.6549 60.6941 68.5769 62.0801 68.5769C63.2131 68.5769 63.7961 69.1159 63.9611 70.1609H65.4461C65.2701 68.3129 63.8731 67.4109 62.0691 67.4109C59.8801 67.4109 58.2521 69.0609 58.2521 71.4259V71.5139C58.2521 73.9339 59.6271 75.5069 62.0911 75.5069ZM69.0454 74.4729C68.0334 74.4729 67.4504 73.7359 67.4504 72.5589V72.4709C67.4504 71.2829 68.0554 70.5679 69.0454 70.5679C70.0354 70.5679 70.6294 71.2939 70.6294 72.4819V72.5589C70.6294 73.7359 70.0354 74.4729 69.0454 74.4729ZM69.0344 75.5069C70.7284 75.5069 71.9934 74.3409 71.9934 72.5479V72.4599C71.9934 70.6999 70.7284 69.5229 69.0454 69.5229C67.3514 69.5229 66.0864 70.7109 66.0864 72.4929V72.5809C66.0864 74.3299 67.3404 75.5069 69.0344 75.5069ZM72.976 75.3969H74.307V72.0089C74.307 71.0959 74.912 70.6339 75.66 70.6339C76.452 70.6339 76.804 71.0299 76.804 71.8989V75.3969H78.135V71.7779C78.135 70.1939 77.321 69.5229 76.166 69.5229C75.22 69.5229 74.582 69.9959 74.307 70.5569V69.6439H72.976V75.3969ZM81.9674 75.5069C83.5294 75.5069 84.5304 74.5719 84.6294 73.2519H83.4084C83.3314 74.0659 82.7264 74.4839 82.0224 74.4839C81.0434 74.4839 80.4274 73.8239 80.4274 72.5699V72.4819C80.4274 71.2939 81.0764 70.5899 81.9894 70.5899C82.6934 70.5899 83.1994 70.9089 83.3094 71.6789H84.5964C84.4424 70.0949 83.2434 69.5229 81.9674 69.5229C80.3614 69.5229 79.0634 70.6779 79.0634 72.5039V72.5919C79.0634 74.4289 80.3174 75.5069 81.9674 75.5069ZM88.0856 75.5069C89.5596 75.5069 90.5386 74.8469 90.7256 73.6369H89.4386C89.3396 74.1979 88.9216 74.5169 88.1186 74.5169C87.1286 74.5169 86.5786 73.9009 86.5346 72.8119H90.7476V72.4269C90.7476 70.3699 89.4606 69.5229 88.0306 69.5229C86.3916 69.5229 85.1706 70.7109 85.1706 72.4929V72.5809C85.1706 74.3959 86.3916 75.5069 88.0856 75.5069ZM86.5566 71.9209C86.6886 71.0299 87.2276 70.4909 88.0306 70.4909C88.8556 70.4909 89.3616 70.9309 89.4276 71.9209H86.5566ZM91.7164 75.3969H93.0474V72.4049C93.0474 71.1839 93.7514 70.8099 94.9174 70.7989V69.5559C93.9494 69.5669 93.4104 69.9959 93.0474 70.7219V69.6439H91.7164V75.3969ZM95.8685 75.3969H97.1995V72.0089C97.1995 71.0959 97.8045 70.6339 98.5525 70.6339C99.3445 70.6339 99.6965 71.0299 99.6965 71.8989V75.3969H101.027V71.7779C101.027 70.1939 100.213 69.5229 99.0585 69.5229C98.1125 69.5229 97.4745 69.9959 97.1995 70.5569V69.6439H95.8685V75.3969ZM102.374 75.3969H103.705V69.6439H102.374V75.3969ZM103.023 68.6979C103.463 68.6979 103.815 68.3679 103.815 67.9389C103.815 67.4989 103.463 67.1689 103.023 67.1689C102.583 67.1689 102.231 67.4989 102.231 67.9389C102.231 68.3679 102.583 68.6979 103.023 68.6979ZM105.107 75.3969H106.438V72.0089C106.438 71.0959 107.043 70.6339 107.791 70.6339C108.583 70.6339 108.935 71.0299 108.935 71.8989V75.3969H110.266V71.7779C110.266 70.1939 109.452 69.5229 108.297 69.5229C107.351 69.5229 106.713 69.9959 106.438 70.5569V69.6439H105.107V75.3969ZM114.033 77.5089C115.815 77.5089 116.948 76.6619 116.959 74.9679V69.6439H115.628V70.5239C115.298 69.9519 114.726 69.5229 113.78 69.5229C112.295 69.5229 111.195 70.7329 111.195 72.3499V72.4269C111.195 74.0879 112.306 75.1659 113.747 75.1659C114.594 75.1659 115.309 74.6489 115.628 74.0989V74.9459C115.628 75.9799 115.056 76.4969 114.022 76.4969C113.153 76.4969 112.713 76.1669 112.603 75.5949H111.261C111.415 76.6949 112.229 77.5089 114.033 77.5089ZM114.077 74.1429C113.219 74.1429 112.559 73.4829 112.559 72.4159V72.3279C112.559 71.2829 113.131 70.5679 114.121 70.5679C115.078 70.5679 115.672 71.2169 115.672 72.3059V72.3829C115.672 73.4829 115.001 74.1429 114.077 74.1429Z" fill="#1B263A"/>
<rect width="8.74454" height="8.74454" rx="4.37227" transform="matrix(-1 0 0 1 39.7754 68.0248)" fill="#FBB646"/>
<path d="M58.6461 98.1586H60.1091V94.8146H63.6401V98.1586H65.1141V90.2936H63.6401V93.6376H60.1091V90.2936H58.6461V98.1586ZM69.0532 98.2686C70.5272 98.2686 71.5062 97.6086 71.6932 96.3986H70.4062C70.3072 96.9596 69.8892 97.2786 69.0862 97.2786C68.0962 97.2786 67.5462 96.6626 67.5022 95.5736H71.7152V95.1886C71.7152 93.1316 70.4282 92.2846 68.9982 92.2846C67.3592 92.2846 66.1382 93.4726 66.1382 95.2546V95.3426C66.1382 97.1576 67.3592 98.2686 69.0532 98.2686ZM67.5242 94.6826C67.6562 93.7916 68.1952 93.2526 68.9982 93.2526C69.8232 93.2526 70.3292 93.6926 70.3952 94.6826H67.5242ZM74.2447 98.2686C75.1247 98.2686 75.6307 97.9496 76.0047 97.4546V98.1586H77.3137V94.3856C77.3137 92.8126 76.3017 92.2846 75.0147 92.2846C73.7277 92.2846 72.6607 92.8456 72.5507 94.1876H73.8377C73.9037 93.6156 74.2447 93.2856 74.9377 93.2856C75.7187 93.2856 75.9827 93.6706 75.9827 94.4406V94.7376H75.2677C73.6177 94.7376 72.3197 95.2216 72.3197 96.5636C72.3197 97.7626 73.1887 98.2686 74.2447 98.2686ZM74.5637 97.3116C73.9037 97.3116 73.6397 96.9926 73.6397 96.5086C73.6397 95.8046 74.2887 95.5736 75.3007 95.5736H75.9827V96.1456C75.9827 96.8826 75.3777 97.3116 74.5637 97.3116ZM78.6523 98.1586H79.9833V89.7436H78.6523V98.1586ZM83.3436 98.2576C83.7506 98.2576 84.0366 98.1916 84.2456 98.1146V97.0586C84.0586 97.1356 83.8606 97.1686 83.5966 97.1686C83.1786 97.1686 82.9366 96.9376 82.9366 96.4316V93.4066H84.2016V92.4056H82.9366V91.1406H81.6056V92.4056H80.8356V93.4066H81.6056V96.5526C81.6056 97.6416 82.1996 98.2576 83.3436 98.2576ZM85.2262 98.1586H86.5572V94.7706C86.5572 93.8576 87.1622 93.3956 87.9102 93.3956C88.7022 93.3956 89.0542 93.7916 89.0542 94.6606V98.1586H90.3852V94.5396C90.3852 92.9556 89.5712 92.2846 88.4162 92.2846C87.4702 92.2846 86.8322 92.7576 86.5572 93.3186V89.7436H85.2262V98.1586ZM92.1754 100.128H93.4844L96.6194 92.4056H95.3214L93.9134 96.1126L92.3844 92.4056H90.9434L93.2204 97.5756L92.1754 100.128Z" fill="#1B263A"/>
<rect width="8.74454" height="8.74454" rx="4.37227" transform="matrix(-1 0 0 1 39.7754 90.387)" fill="#45DB9E"/>
<path d="M58.6461 120.92H60.1091V117.928H61.2091C62.8921 117.928 64.0911 117.191 64.0911 115.53V115.486C64.0911 113.836 62.9361 113.055 61.1761 113.055H58.6461V120.92ZM60.1091 116.872V114.188H61.1761C62.1111 114.188 62.6611 114.551 62.6611 115.486V115.53C62.6611 116.399 62.1441 116.872 61.1761 116.872H60.1091ZM67.4321 119.996C66.4201 119.996 65.8371 119.259 65.8371 118.082V117.994C65.8371 116.806 66.4421 116.091 67.4321 116.091C68.4221 116.091 69.0161 116.817 69.0161 118.005V118.082C69.0161 119.259 68.4221 119.996 67.4321 119.996ZM67.4211 121.03C69.1151 121.03 70.3801 119.864 70.3801 118.071V117.983C70.3801 116.223 69.1151 115.046 67.4321 115.046C65.7381 115.046 64.4731 116.234 64.4731 118.016V118.104C64.4731 119.853 65.7271 121.03 67.4211 121.03ZM73.9367 119.996C72.9247 119.996 72.3417 119.259 72.3417 118.082V117.994C72.3417 116.806 72.9467 116.091 73.9367 116.091C74.9267 116.091 75.5207 116.817 75.5207 118.005V118.082C75.5207 119.259 74.9267 119.996 73.9367 119.996ZM73.9257 121.03C75.6197 121.03 76.8847 119.864 76.8847 118.071V117.983C76.8847 116.223 75.6197 115.046 73.9367 115.046C72.2427 115.046 70.9777 116.234 70.9777 118.016V118.104C70.9777 119.853 72.2317 121.03 73.9257 121.03ZM77.8674 120.92H79.1984V117.928C79.1984 116.707 79.9024 116.333 81.0684 116.322V115.079C80.1004 115.09 79.5614 115.519 79.1984 116.245V115.167H77.8674V120.92Z" fill="#1B263A"/>
<rect width="8.74454" height="8.74454" rx="4.37227" transform="matrix(-1 0 0 1 39.7754 112.548)" fill="#BC1919"/>
<mask id="mask0_554_7225" style="mask-type:alpha" maskUnits="userSpaceOnUse" x="269" y="63" width="109" height="109">
<circle cx="323.506" cy="117.594" r="52.6976" stroke="black" stroke-width="3"/>
</mask>
<g mask="url(#mask0_554_7225)">
<path d="M307.676 120.92L261.971 101.232L250.955 97.0132L241.346 56.6999L346.114 61.1529L382.443 83.6537L387.365 120.92H307.676Z" fill="#FBB646"/>
<path d="M384.083 120.148H368.615L342.832 131.164L361.114 154.603L378.693 146.634L384.083 120.148Z" fill="#BC1919"/>
<path d="M298.791 103.819L282.464 106.247L262.674 98.5855L253.086 141.789L288.243 182.103L380.355 165.696L384.34 153.743L365.568 141.789L298.791 103.819Z" fill="#45DB9E"/>
</g>
<defs>
<filter id="filter0_d_554_7225" x="0.0898438" y="0.820801" width="410.393" height="198.222" filterUnits="userSpaceOnUse" color-interpolation-filters="sRGB">
<feFlood flood-opacity="0" result="BackgroundImageFix"/>
<feColorMatrix in="SourceAlpha" type="matrix" values="0 0 0 0 0 0 0 0 0 0 0 0 0 0 0 0 0 0 127 0" result="hardAlpha"/>
<feOffset dy="4.71"/>
<feGaussianBlur stdDeviation="2"/>
<feColorMatrix type="matrix" values="0 0 0 0 0.133333 0 0 0 0 0.133333 0 0 0 0 0.27451 0 0 0 0.03 0"/>
<feBlend mode="normal" in2="BackgroundImageFix" result="effect1_dropShadow_554_7225"/>
<feBlend mode="normal" in="SourceGraphic" in2="effect1_dropShadow_554_7225" result="shape"/>
</filter>
</defs>
</svg>
