<svg width="411" height="198" viewBox="0 0 411 198" fill="none" xmlns="http://www.w3.org/2000/svg">
<g filter="url(#filter0_d_554_7197)">
<rect x="4.08984" y="0.262207" width="402.393" height="188.922" fill="white"/>
</g>
<line x1="4.08984" y1="42.9477" x2="406.483" y2="42.9477" stroke="#EBF0F3" stroke-width="0.831552"/>
<path d="M28.6262 26.6377L30.8342 18.2377H33.5942L35.8022 26.6377H34.1702L33.7142 24.7897H30.7142L30.2582 26.6377H28.6262ZM31.0862 23.3257H33.3422L32.3222 19.2337H32.1062L31.0862 23.3257ZM39.1716 26.8057C38.5956 26.8057 38.0716 26.6857 37.5996 26.4457C37.1356 26.2057 36.7676 25.8577 36.4956 25.4017C36.2236 24.9457 36.0876 24.3937 36.0876 23.7457V23.5777C36.0876 22.9297 36.2236 22.3777 36.4956 21.9217C36.7676 21.4657 37.1356 21.1177 37.5996 20.8777C38.0716 20.6377 38.5956 20.5177 39.1716 20.5177C39.7396 20.5177 40.2276 20.6177 40.6356 20.8177C41.0436 21.0177 41.3716 21.2937 41.6196 21.6457C41.8756 21.9897 42.0436 22.3817 42.1236 22.8217L40.6596 23.1337C40.6276 22.8937 40.5556 22.6777 40.4436 22.4857C40.3316 22.2937 40.1716 22.1417 39.9636 22.0297C39.7636 21.9177 39.5116 21.8617 39.2076 21.8617C38.9036 21.8617 38.6276 21.9297 38.3796 22.0657C38.1396 22.1937 37.9476 22.3897 37.8036 22.6537C37.6676 22.9097 37.5996 23.2257 37.5996 23.6017V23.7217C37.5996 24.0977 37.6676 24.4177 37.8036 24.6817C37.9476 24.9377 38.1396 25.1337 38.3796 25.2697C38.6276 25.3977 38.9036 25.4617 39.2076 25.4617C39.6636 25.4617 40.0076 25.3457 40.2396 25.1137C40.4796 24.8737 40.6316 24.5617 40.6956 24.1777L42.1596 24.5257C42.0556 24.9497 41.8756 25.3377 41.6196 25.6897C41.3716 26.0337 41.0436 26.3057 40.6356 26.5057C40.2276 26.7057 39.7396 26.8057 39.1716 26.8057ZM45.0194 26.6377C44.6274 26.6377 44.3074 26.5177 44.0594 26.2777C43.8194 26.0297 43.6994 25.7017 43.6994 25.2937V21.9337H42.2114V20.6857H43.6994V18.8377H45.2114V20.6857H46.8434V21.9337H45.2114V25.0297C45.2114 25.2697 45.3234 25.3897 45.5474 25.3897H46.6994V26.6377H45.0194ZM47.732 26.6377V20.6857H49.244V26.6377H47.732ZM48.488 19.9897C48.216 19.9897 47.984 19.9017 47.792 19.7257C47.608 19.5497 47.516 19.3177 47.516 19.0297C47.516 18.7417 47.608 18.5097 47.792 18.3337C47.984 18.1577 48.216 18.0697 48.488 18.0697C48.768 18.0697 49 18.1577 49.184 18.3337C49.368 18.5097 49.46 18.7417 49.46 19.0297C49.46 19.3177 49.368 19.5497 49.184 19.7257C49 19.9017 48.768 19.9897 48.488 19.9897ZM51.6875 26.6377L49.7915 20.6857H51.3995L52.7795 25.5337H52.9955L54.3755 20.6857H55.9835L54.0875 26.6377H51.6875ZM59.0817 26.8057C58.4897 26.8057 57.9657 26.6817 57.5097 26.4337C57.0617 26.1777 56.7097 25.8217 56.4537 25.3657C56.2057 24.9017 56.0817 24.3577 56.0817 23.7337V23.5897C56.0817 22.9657 56.2057 22.4257 56.4537 21.9697C56.7017 21.5057 57.0497 21.1497 57.4977 20.9017C57.9457 20.6457 58.4657 20.5177 59.0577 20.5177C59.6417 20.5177 60.1497 20.6497 60.5817 20.9137C61.0137 21.1697 61.3497 21.5297 61.5897 21.9937C61.8297 22.4497 61.9497 22.9817 61.9497 23.5897V24.1057H57.6177C57.6337 24.5137 57.7857 24.8457 58.0737 25.1017C58.3617 25.3577 58.7137 25.4857 59.1297 25.4857C59.5537 25.4857 59.8657 25.3937 60.0657 25.2097C60.2657 25.0257 60.4177 24.8217 60.5217 24.5977L61.7577 25.2457C61.6457 25.4537 61.4817 25.6817 61.2657 25.9297C61.0577 26.1697 60.7777 26.3777 60.4257 26.5537C60.0737 26.7217 59.6257 26.8057 59.0817 26.8057ZM57.6297 22.9777H60.4137C60.3817 22.6337 60.2417 22.3577 59.9937 22.1497C59.7537 21.9417 59.4377 21.8377 59.0457 21.8377C58.6377 21.8377 58.3137 21.9417 58.0737 22.1497C57.8337 22.3577 57.6857 22.6337 57.6297 22.9777ZM65.3343 26.6377V18.2377H68.9823C69.5103 18.2377 69.9703 18.3297 70.3623 18.5137C70.7543 18.6977 71.0583 18.9577 71.2743 19.2937C71.4903 19.6297 71.5983 20.0257 71.5983 20.4817V20.6257C71.5983 21.1297 71.4783 21.5377 71.2383 21.8497C70.9983 22.1617 70.7023 22.3897 70.3503 22.5337V22.7497C70.6703 22.7657 70.9183 22.8777 71.0943 23.0857C71.2703 23.2857 71.3583 23.5537 71.3583 23.8897V26.6377H69.7743V24.1177C69.7743 23.9257 69.7223 23.7697 69.6183 23.6497C69.5223 23.5297 69.3583 23.4697 69.1263 23.4697H66.9183V26.6377H65.3343ZM66.9183 22.0297H68.8143C69.1903 22.0297 69.4823 21.9297 69.6903 21.7297C69.9063 21.5217 70.0143 21.2497 70.0143 20.9137V20.7937C70.0143 20.4577 69.9103 20.1897 69.7023 19.9897C69.4943 19.7817 69.1983 19.6777 68.8143 19.6777H66.9183V22.0297ZM72.4844 26.6377V20.6857H73.9964V26.6377H72.4844ZM73.2404 19.9897C72.9684 19.9897 72.7364 19.9017 72.5444 19.7257C72.3604 19.5497 72.2684 19.3177 72.2684 19.0297C72.2684 18.7417 72.3604 18.5097 72.5444 18.3337C72.7364 18.1577 72.9684 18.0697 73.2404 18.0697C73.5204 18.0697 73.7524 18.1577 73.9364 18.3337C74.1204 18.5097 74.2124 18.7417 74.2124 19.0297C74.2124 19.3177 74.1204 19.5497 73.9364 19.7257C73.7524 19.9017 73.5204 19.9897 73.2404 19.9897ZM77.6639 26.8057C76.8879 26.8057 76.2519 26.6377 75.7559 26.3017C75.2599 25.9657 74.9599 25.4857 74.8559 24.8617L76.2479 24.5017C76.3039 24.7817 76.3959 25.0017 76.5239 25.1617C76.6599 25.3217 76.8239 25.4377 77.0159 25.5097C77.2159 25.5737 77.4319 25.6057 77.6639 25.6057C78.0159 25.6057 78.2759 25.5457 78.4439 25.4257C78.6119 25.2977 78.6959 25.1417 78.6959 24.9577C78.6959 24.7737 78.6159 24.6337 78.4559 24.5377C78.2959 24.4337 78.0399 24.3497 77.6879 24.2857L77.3519 24.2257C76.9359 24.1457 76.5559 24.0377 76.2119 23.9017C75.8679 23.7577 75.5919 23.5617 75.3839 23.3137C75.1759 23.0657 75.0719 22.7457 75.0719 22.3537C75.0719 21.7617 75.2879 21.3097 75.7199 20.9977C76.1519 20.6777 76.7199 20.5177 77.4239 20.5177C78.0879 20.5177 78.6399 20.6657 79.0799 20.9617C79.5199 21.2577 79.8079 21.6457 79.9439 22.1257L78.5399 22.5577C78.4759 22.2537 78.3439 22.0377 78.1439 21.9097C77.9519 21.7817 77.7119 21.7177 77.4239 21.7177C77.1359 21.7177 76.9159 21.7697 76.7639 21.8737C76.6119 21.9697 76.5359 22.1057 76.5359 22.2817C76.5359 22.4737 76.6159 22.6177 76.7759 22.7137C76.9359 22.8017 77.1519 22.8697 77.4239 22.9177L77.7599 22.9777C78.2079 23.0577 78.6119 23.1657 78.9719 23.3017C79.3399 23.4297 79.6279 23.6177 79.8359 23.8657C80.0519 24.1057 80.1599 24.4337 80.1599 24.8497C80.1599 25.4737 79.9319 25.9577 79.4759 26.3017C79.0279 26.6377 78.4239 26.8057 77.6639 26.8057ZM81.0048 26.6377V18.2377H82.5168V22.8817H82.7328L84.7008 20.6857H86.6688L83.9208 23.5657L86.7648 26.6377H84.8208L82.7328 24.2737H82.5168V26.6377H81.0048ZM89.8172 26.6377V18.2377H91.4012V26.6377H89.8172ZM92.5492 26.6377V20.6857H94.0372V21.4657H94.2532C94.3492 21.2577 94.5292 21.0617 94.7932 20.8777C95.0572 20.6857 95.4572 20.5897 95.9932 20.5897C96.4572 20.5897 96.8612 20.6977 97.2052 20.9137C97.5572 21.1217 97.8292 21.4137 98.0212 21.7897C98.2132 22.1577 98.3092 22.5897 98.3092 23.0857V26.6377H96.7972V23.2057C96.7972 22.7577 96.6852 22.4217 96.4612 22.1977C96.2452 21.9737 95.9332 21.8617 95.5252 21.8617C95.0612 21.8617 94.7012 22.0177 94.4452 22.3297C94.1892 22.6337 94.0612 23.0617 94.0612 23.6137V26.6377H92.5492ZM101.864 26.8057C101.392 26.8057 100.948 26.6897 100.532 26.4577C100.124 26.2177 99.7957 25.8697 99.5477 25.4137C99.2997 24.9577 99.1757 24.4057 99.1757 23.7577V23.5657C99.1757 22.9177 99.2997 22.3657 99.5477 21.9097C99.7957 21.4537 100.124 21.1097 100.532 20.8777C100.94 20.6377 101.384 20.5177 101.864 20.5177C102.224 20.5177 102.524 20.5617 102.764 20.6497C103.012 20.7297 103.212 20.8337 103.364 20.9617C103.516 21.0897 103.632 21.2257 103.712 21.3697H103.928V18.2377H105.44V26.6377H103.952V25.9177H103.736C103.6 26.1417 103.388 26.3457 103.1 26.5297C102.82 26.7137 102.408 26.8057 101.864 26.8057ZM102.32 25.4857C102.784 25.4857 103.172 25.3377 103.484 25.0417C103.796 24.7377 103.952 24.2977 103.952 23.7217V23.6017C103.952 23.0257 103.796 22.5897 103.484 22.2937C103.18 21.9897 102.792 21.8377 102.32 21.8377C101.856 21.8377 101.468 21.9897 101.156 22.2937C100.844 22.5897 100.688 23.0257 100.688 23.6017V23.7217C100.688 24.2977 100.844 24.7377 101.156 25.0417C101.468 25.3377 101.856 25.4857 102.32 25.4857ZM106.636 26.6377V20.6857H108.148V26.6377H106.636ZM107.392 19.9897C107.12 19.9897 106.888 19.9017 106.696 19.7257C106.512 19.5497 106.42 19.3177 106.42 19.0297C106.42 18.7417 106.512 18.5097 106.696 18.3337C106.888 18.1577 107.12 18.0697 107.392 18.0697C107.672 18.0697 107.904 18.1577 108.088 18.3337C108.272 18.5097 108.364 18.7417 108.364 19.0297C108.364 19.3177 108.272 19.5497 108.088 19.7257C107.904 19.9017 107.672 19.9897 107.392 19.9897ZM112.14 26.8057C111.564 26.8057 111.04 26.6857 110.568 26.4457C110.104 26.2057 109.736 25.8577 109.464 25.4017C109.192 24.9457 109.056 24.3937 109.056 23.7457V23.5777C109.056 22.9297 109.192 22.3777 109.464 21.9217C109.736 21.4657 110.104 21.1177 110.568 20.8777C111.04 20.6377 111.564 20.5177 112.14 20.5177C112.708 20.5177 113.196 20.6177 113.604 20.8177C114.012 21.0177 114.34 21.2937 114.588 21.6457C114.844 21.9897 115.012 22.3817 115.092 22.8217L113.628 23.1337C113.596 22.8937 113.524 22.6777 113.412 22.4857C113.3 22.2937 113.14 22.1417 112.932 22.0297C112.732 21.9177 112.48 21.8617 112.176 21.8617C111.872 21.8617 111.596 21.9297 111.348 22.0657C111.108 22.1937 110.916 22.3897 110.772 22.6537C110.636 22.9097 110.568 23.2257 110.568 23.6017V23.7217C110.568 24.0977 110.636 24.4177 110.772 24.6817C110.916 24.9377 111.108 25.1337 111.348 25.2697C111.596 25.3977 111.872 25.4617 112.176 25.4617C112.632 25.4617 112.976 25.3457 113.208 25.1137C113.448 24.8737 113.6 24.5617 113.664 24.1777L115.128 24.5257C115.024 24.9497 114.844 25.3377 114.588 25.6897C114.34 26.0337 114.012 26.3057 113.604 26.5057C113.196 26.7057 112.708 26.8057 112.14 26.8057ZM117.743 26.8057C117.319 26.8057 116.939 26.7337 116.603 26.5897C116.267 26.4377 115.999 26.2217 115.799 25.9417C115.607 25.6537 115.511 25.3057 115.511 24.8977C115.511 24.4897 115.607 24.1497 115.799 23.8777C115.999 23.5977 116.271 23.3897 116.615 23.2537C116.967 23.1097 117.367 23.0377 117.815 23.0377H119.447V22.7017C119.447 22.4217 119.359 22.1937 119.183 22.0177C119.007 21.8337 118.727 21.7417 118.343 21.7417C117.967 21.7417 117.687 21.8297 117.503 22.0057C117.319 22.1737 117.199 22.3937 117.143 22.6657L115.751 22.1977C115.847 21.8937 115.999 21.6177 116.207 21.3697C116.423 21.1137 116.707 20.9097 117.059 20.7577C117.419 20.5977 117.855 20.5177 118.367 20.5177C119.151 20.5177 119.771 20.7137 120.227 21.1057C120.683 21.4977 120.911 22.0657 120.911 22.8097V25.0297C120.911 25.2697 121.023 25.3897 121.247 25.3897H121.727V26.6377H120.719C120.423 26.6377 120.179 26.5657 119.987 26.4217C119.795 26.2777 119.699 26.0857 119.699 25.8457V25.8337H119.471C119.439 25.9297 119.367 26.0577 119.255 26.2177C119.143 26.3697 118.967 26.5057 118.727 26.6257C118.487 26.7457 118.159 26.8057 117.743 26.8057ZM118.007 25.5817C118.431 25.5817 118.775 25.4657 119.039 25.2337C119.311 24.9937 119.447 24.6777 119.447 24.2857V24.1657H117.923C117.643 24.1657 117.423 24.2257 117.263 24.3457C117.103 24.4657 117.023 24.6337 117.023 24.8497C117.023 25.0657 117.107 25.2417 117.275 25.3777C117.443 25.5137 117.687 25.5817 118.007 25.5817ZM124.199 26.6377C123.807 26.6377 123.487 26.5177 123.239 26.2777C122.999 26.0297 122.879 25.7017 122.879 25.2937V21.9337H121.391V20.6857H122.879V18.8377H124.391V20.6857H126.023V21.9337H124.391V25.0297C124.391 25.2697 124.503 25.3897 124.727 25.3897H125.879V26.6377H124.199ZM129.532 26.8057C128.94 26.8057 128.408 26.6857 127.936 26.4457C127.464 26.2057 127.092 25.8577 126.82 25.4017C126.548 24.9457 126.412 24.3977 126.412 23.7577V23.5657C126.412 22.9257 126.548 22.3777 126.82 21.9217C127.092 21.4657 127.464 21.1177 127.936 20.8777C128.408 20.6377 128.94 20.5177 129.532 20.5177C130.124 20.5177 130.656 20.6377 131.128 20.8777C131.6 21.1177 131.972 21.4657 132.244 21.9217C132.516 22.3777 132.652 22.9257 132.652 23.5657V23.7577C132.652 24.3977 132.516 24.9457 132.244 25.4017C131.972 25.8577 131.6 26.2057 131.128 26.4457C130.656 26.6857 130.124 26.8057 129.532 26.8057ZM129.532 25.4617C129.996 25.4617 130.38 25.3137 130.684 25.0177C130.988 24.7137 131.14 24.2817 131.14 23.7217V23.6017C131.14 23.0417 130.988 22.6137 130.684 22.3177C130.388 22.0137 130.004 21.8617 129.532 21.8617C129.068 21.8617 128.684 22.0137 128.38 22.3177C128.076 22.6137 127.924 23.0417 127.924 23.6017V23.7217C127.924 24.2817 128.076 24.7137 128.38 25.0177C128.684 25.3137 129.068 25.4617 129.532 25.4617ZM133.568 26.6377V20.6857H135.056V21.3577H135.272C135.36 21.1177 135.504 20.9417 135.704 20.8297C135.912 20.7177 136.152 20.6617 136.424 20.6617H137.144V22.0057H136.4C136.016 22.0057 135.7 22.1097 135.452 22.3177C135.204 22.5177 135.08 22.8297 135.08 23.2537V26.6377H133.568ZM140.177 26.8057C139.401 26.8057 138.765 26.6377 138.269 26.3017C137.773 25.9657 137.473 25.4857 137.369 24.8617L138.761 24.5017C138.817 24.7817 138.909 25.0017 139.037 25.1617C139.173 25.3217 139.337 25.4377 139.529 25.5097C139.729 25.5737 139.945 25.6057 140.177 25.6057C140.529 25.6057 140.789 25.5457 140.957 25.4257C141.125 25.2977 141.209 25.1417 141.209 24.9577C141.209 24.7737 141.129 24.6337 140.969 24.5377C140.809 24.4337 140.553 24.3497 140.201 24.2857L139.865 24.2257C139.449 24.1457 139.069 24.0377 138.725 23.9017C138.381 23.7577 138.105 23.5617 137.897 23.3137C137.689 23.0657 137.585 22.7457 137.585 22.3537C137.585 21.7617 137.801 21.3097 138.233 20.9977C138.665 20.6777 139.233 20.5177 139.937 20.5177C140.601 20.5177 141.153 20.6657 141.593 20.9617C142.033 21.2577 142.321 21.6457 142.457 22.1257L141.053 22.5577C140.989 22.2537 140.857 22.0377 140.657 21.9097C140.465 21.7817 140.225 21.7177 139.937 21.7177C139.649 21.7177 139.429 21.7697 139.277 21.8737C139.125 21.9697 139.049 22.1057 139.049 22.2817C139.049 22.4737 139.129 22.6177 139.289 22.7137C139.449 22.8017 139.665 22.8697 139.937 22.9177L140.273 22.9777C140.721 23.0577 141.125 23.1657 141.485 23.3017C141.853 23.4297 142.141 23.6177 142.349 23.8657C142.565 24.1057 142.673 24.4337 142.673 24.8497C142.673 25.4737 142.445 25.9577 141.989 26.3017C141.541 26.6377 140.937 26.8057 140.177 26.8057Z" fill="#1B263A"/>
<path d="M58.6481 75.3608H60.1111V72.3688H61.2111C62.8941 72.3688 64.0931 71.6318 64.0931 69.9708V69.9268C64.0931 68.2768 62.9381 67.4958 61.1781 67.4958H58.6481V75.3608ZM60.1111 71.3128V68.6288H61.1781C62.1131 68.6288 62.6631 68.9918 62.6631 69.9268V69.9708C62.6631 70.8398 62.1461 71.3128 61.1781 71.3128H60.1111ZM67.4341 74.4368C66.4221 74.4368 65.8391 73.6998 65.8391 72.5228V72.4348C65.8391 71.2468 66.4441 70.5318 67.4341 70.5318C68.4241 70.5318 69.0181 71.2578 69.0181 72.4458V72.5228C69.0181 73.6998 68.4241 74.4368 67.4341 74.4368ZM67.4231 75.4708C69.1171 75.4708 70.3821 74.3048 70.3821 72.5118V72.4238C70.3821 70.6638 69.1171 69.4868 67.4341 69.4868C65.7401 69.4868 64.4751 70.6748 64.4751 72.4568V72.5448C64.4751 74.2938 65.7291 75.4708 67.4231 75.4708ZM73.9387 74.4368C72.9267 74.4368 72.3437 73.6998 72.3437 72.5228V72.4348C72.3437 71.2468 72.9487 70.5318 73.9387 70.5318C74.9287 70.5318 75.5227 71.2578 75.5227 72.4458V72.5228C75.5227 73.6998 74.9287 74.4368 73.9387 74.4368ZM73.9277 75.4708C75.6217 75.4708 76.8867 74.3048 76.8867 72.5118V72.4238C76.8867 70.6638 75.6217 69.4868 73.9387 69.4868C72.2447 69.4868 70.9797 70.6748 70.9797 72.4568V72.5448C70.9797 74.2938 72.2337 75.4708 73.9277 75.4708ZM77.8693 75.3608H79.2003V72.3688C79.2003 71.1478 79.9043 70.7738 81.0703 70.7628V69.5198C80.1023 69.5308 79.5633 69.9598 79.2003 70.6858V69.6078H77.8693V75.3608ZM85.8745 75.3608H87.2715L88.8665 69.6298L90.4175 75.3608H91.8805L93.8495 67.4958H92.4855L91.0775 73.3038L89.5155 67.4958H88.3055L86.7765 73.2708L85.4125 67.4958H83.9165L85.8745 75.3608ZM96.7442 75.4708C98.2182 75.4708 99.1972 74.8108 99.3842 73.6008H98.0972C97.9982 74.1618 97.5802 74.4808 96.7772 74.4808C95.7872 74.4808 95.2372 73.8648 95.1932 72.7758H99.4062V72.3908C99.4062 70.3338 98.1192 69.4868 96.6892 69.4868C95.0502 69.4868 93.8292 70.6748 93.8292 72.4568V72.5448C93.8292 74.3598 95.0502 75.4708 96.7442 75.4708ZM95.2152 71.8848C95.3472 70.9938 95.8862 70.4548 96.6892 70.4548C97.5142 70.4548 98.0202 70.8948 98.0862 71.8848H95.2152ZM100.408 75.3608H101.739V69.6078H100.408V75.3608ZM101.057 68.6618C101.497 68.6618 101.849 68.3318 101.849 67.9028C101.849 67.4628 101.497 67.1328 101.057 67.1328C100.617 67.1328 100.265 67.4628 100.265 67.9028C100.265 68.3318 100.617 68.6618 101.057 68.6618ZM105.11 75.4708C106.584 75.4708 107.409 74.7998 107.409 73.6338C107.409 72.4128 106.606 72.0828 105.253 71.8738C104.34 71.7198 104.065 71.5548 104.065 71.1368C104.065 70.7298 104.406 70.4548 104.978 70.4548C105.594 70.4548 105.891 70.6968 106.001 71.2248H107.233C107.09 69.9268 106.155 69.4868 104.978 69.4868C103.9 69.4868 102.822 70.0588 102.822 71.2138C102.822 72.2918 103.383 72.7208 104.901 72.9628C105.748 73.1058 106.133 73.2818 106.133 73.7548C106.133 74.2388 105.814 74.4918 105.099 74.4918C104.318 74.4918 104.021 74.1508 103.955 73.5678H102.701C102.756 74.7888 103.625 75.4708 105.11 75.4708ZM110.326 75.4708C111.8 75.4708 112.625 74.7998 112.625 73.6338C112.625 72.4128 111.822 72.0828 110.469 71.8738C109.556 71.7198 109.281 71.5548 109.281 71.1368C109.281 70.7298 109.622 70.4548 110.194 70.4548C110.81 70.4548 111.107 70.6968 111.217 71.2248H112.449C112.306 69.9268 111.371 69.4868 110.194 69.4868C109.116 69.4868 108.038 70.0588 108.038 71.2138C108.038 72.2918 108.599 72.7208 110.117 72.9628C110.964 73.1058 111.349 73.2818 111.349 73.7548C111.349 74.2388 111.03 74.4918 110.315 74.4918C109.534 74.4918 109.237 74.1508 109.171 73.5678H107.917C107.972 74.7888 108.841 75.4708 110.326 75.4708ZM113.572 75.3608H114.903V71.9178C114.903 71.0378 115.508 70.5978 116.168 70.5978C116.817 70.5978 117.191 70.9608 117.191 71.8078V75.3608H118.522V71.9178C118.522 71.0378 119.127 70.5978 119.787 70.5978C120.447 70.5978 120.81 70.9608 120.81 71.8078V75.3608H122.141V71.7198C122.141 70.1358 121.283 69.4868 120.227 69.4868C119.512 69.4868 118.72 69.8058 118.28 70.5208C117.994 69.8058 117.4 69.4868 116.652 69.4868C115.805 69.4868 115.178 69.9488 114.903 70.4878V69.6078H113.572V75.3608ZM124.957 75.4708C125.837 75.4708 126.343 75.1518 126.717 74.6568V75.3608H128.026V71.5878C128.026 70.0148 127.014 69.4868 125.727 69.4868C124.44 69.4868 123.373 70.0478 123.263 71.3898H124.55C124.616 70.8178 124.957 70.4878 125.65 70.4878C126.431 70.4878 126.695 70.8728 126.695 71.6428V71.9398H125.98C124.33 71.9398 123.032 72.4238 123.032 73.7658C123.032 74.9648 123.901 75.4708 124.957 75.4708ZM125.276 74.5138C124.616 74.5138 124.352 74.1948 124.352 73.7108C124.352 73.0068 125.001 72.7758 126.013 72.7758H126.695V73.3478C126.695 74.0848 126.09 74.5138 125.276 74.5138ZM129.332 75.3608H130.663V71.9728C130.663 71.0598 131.268 70.5978 132.016 70.5978C132.808 70.5978 133.16 70.9938 133.16 71.8628V75.3608H134.491V71.7418C134.491 70.1578 133.677 69.4868 132.522 69.4868C131.576 69.4868 130.938 69.9598 130.663 70.5208V69.6078H129.332V75.3608ZM138.205 77.3298H139.536V74.4588C139.844 75.0198 140.504 75.4708 141.417 75.4708C142.902 75.4708 143.969 74.3488 143.969 72.5008V72.4128C143.969 70.5538 142.858 69.4868 141.417 69.4868C140.57 69.4868 139.855 69.9818 139.536 70.5318V69.6078H138.205V77.3298ZM141.087 74.4148C140.119 74.4148 139.492 73.8098 139.492 72.5228V72.4348C139.492 71.1588 140.152 70.5318 141.076 70.5318C141.945 70.5318 142.605 71.1588 142.605 72.4348V72.5228C142.605 73.7548 142.066 74.4148 141.087 74.4148ZM147.476 75.4708C148.95 75.4708 149.929 74.8108 150.116 73.6008H148.829C148.73 74.1618 148.312 74.4808 147.509 74.4808C146.519 74.4808 145.969 73.8648 145.925 72.7758H150.138V72.3908C150.138 70.3338 148.851 69.4868 147.421 69.4868C145.782 69.4868 144.561 70.6748 144.561 72.4568V72.5448C144.561 74.3598 145.782 75.4708 147.476 75.4708ZM145.947 71.8848C146.079 70.9938 146.618 70.4548 147.421 70.4548C148.246 70.4548 148.752 70.8948 148.818 71.8848H145.947ZM151.107 75.3608H152.438V72.3688C152.438 71.1478 153.142 70.7738 154.308 70.7628V69.5198C153.34 69.5308 152.801 69.9598 152.438 70.6858V69.6078H151.107V75.3608ZM155.597 75.3608H156.928V70.6088H158.237V69.6078H156.928V68.7828C156.928 68.2878 157.148 67.9358 157.687 67.9358C157.929 67.9358 158.138 67.9798 158.292 68.0348V67.0008C158.05 66.9238 157.852 66.8908 157.533 66.8908C156.301 66.8908 155.597 67.5728 155.597 68.8378V69.6078H154.816V70.6088H155.597V75.3608ZM161.491 74.4368C160.479 74.4368 159.896 73.6998 159.896 72.5228V72.4348C159.896 71.2468 160.501 70.5318 161.491 70.5318C162.481 70.5318 163.075 71.2578 163.075 72.4458V72.5228C163.075 73.6998 162.481 74.4368 161.491 74.4368ZM161.48 75.4708C163.174 75.4708 164.439 74.3048 164.439 72.5118V72.4238C164.439 70.6638 163.174 69.4868 161.491 69.4868C159.797 69.4868 158.532 70.6748 158.532 72.4568V72.5448C158.532 74.2938 159.786 75.4708 161.48 75.4708ZM165.422 75.3608H166.753V72.3688C166.753 71.1478 167.457 70.7738 168.623 70.7628V69.5198C167.655 69.5308 167.116 69.9598 166.753 70.6858V69.6078H165.422V75.3608ZM169.574 75.3608H170.905V71.9178C170.905 71.0378 171.51 70.5978 172.17 70.5978C172.819 70.5978 173.193 70.9608 173.193 71.8078V75.3608H174.524V71.9178C174.524 71.0378 175.129 70.5978 175.789 70.5978C176.449 70.5978 176.812 70.9608 176.812 71.8078V75.3608H178.143V71.7198C178.143 70.1358 177.285 69.4868 176.229 69.4868C175.514 69.4868 174.722 69.8058 174.282 70.5208C173.996 69.8058 173.402 69.4868 172.654 69.4868C171.807 69.4868 171.18 69.9488 170.905 70.4878V69.6078H169.574V75.3608ZM180.958 75.4708C181.838 75.4708 182.344 75.1518 182.718 74.6568V75.3608H184.027V71.5878C184.027 70.0148 183.015 69.4868 181.728 69.4868C180.441 69.4868 179.374 70.0478 179.264 71.3898H180.551C180.617 70.8178 180.958 70.4878 181.651 70.4878C182.432 70.4878 182.696 70.8728 182.696 71.6428V71.9398H181.981C180.331 71.9398 179.033 72.4238 179.033 73.7658C179.033 74.9648 179.902 75.4708 180.958 75.4708ZM181.277 74.5138C180.617 74.5138 180.353 74.1948 180.353 73.7108C180.353 73.0068 181.002 72.7758 182.014 72.7758H182.696V73.3478C182.696 74.0848 182.091 74.5138 181.277 74.5138ZM185.333 75.3608H186.664V71.9728C186.664 71.0598 187.269 70.5978 188.017 70.5978C188.809 70.5978 189.161 70.9938 189.161 71.8628V75.3608H190.492V71.7418C190.492 70.1578 189.678 69.4868 188.523 69.4868C187.577 69.4868 186.939 69.9598 186.664 70.5208V69.6078H185.333V75.3608ZM192.597 75.4378C193.092 75.4378 193.477 75.0638 193.477 74.5798C193.477 74.0958 193.092 73.7108 192.597 73.7108C192.113 73.7108 191.728 74.0958 191.728 74.5798C191.728 75.0638 192.113 75.4378 192.597 75.4378ZM195.557 75.4378C196.052 75.4378 196.437 75.0638 196.437 74.5798C196.437 74.0958 196.052 73.7108 195.557 73.7108C195.073 73.7108 194.688 74.0958 194.688 74.5798C194.688 75.0638 195.073 75.4378 195.557 75.4378ZM198.517 75.4378C199.012 75.4378 199.397 75.0638 199.397 74.5798C199.397 74.0958 199.012 73.7108 198.517 73.7108C198.033 73.7108 197.648 74.0958 197.648 74.5798C197.648 75.0638 198.033 75.4378 198.517 75.4378Z" fill="#1B263A"/>
<rect width="8.74454" height="8.74454" rx="4.37227" transform="matrix(-1 0 0 1 39.7754 67.9888)" fill="#F87777"/>
<path d="M58.6461 98.1226H60.1091V94.7786H63.6401V98.1226H65.1141V90.2576H63.6401V93.6016H60.1091V90.2576H58.6461V98.1226ZM66.6099 98.1226H67.9409V92.3696H66.6099V98.1226ZM67.2589 91.4236C67.6989 91.4236 68.0509 91.0936 68.0509 90.6646C68.0509 90.2246 67.6989 89.8946 67.2589 89.8946C66.8189 89.8946 66.4669 90.2246 66.4669 90.6646C66.4669 91.0936 66.8189 91.4236 67.2589 91.4236ZM71.7962 100.235C73.5782 100.235 74.7112 99.3876 74.7222 97.6936V92.3696H73.3912V93.2496C73.0612 92.6776 72.4892 92.2486 71.5432 92.2486C70.0582 92.2486 68.9582 93.4586 68.9582 95.0756V95.1526C68.9582 96.8136 70.0692 97.8916 71.5102 97.8916C72.3572 97.8916 73.0722 97.3746 73.3912 96.8246V97.6716C73.3912 98.7056 72.8192 99.2226 71.7852 99.2226C70.9162 99.2226 70.4762 98.8926 70.3662 98.3206H69.0242C69.1782 99.4206 69.9922 100.235 71.7962 100.235ZM71.8402 96.8686C70.9822 96.8686 70.3222 96.2086 70.3222 95.1416V95.0536C70.3222 94.0086 70.8942 93.2936 71.8842 93.2936C72.8412 93.2936 73.4352 93.9426 73.4352 95.0316V95.1086C73.4352 96.2086 72.7642 96.8686 71.8402 96.8686ZM76.0841 98.1226H77.4151V94.7346C77.4151 93.8216 78.0201 93.3596 78.7681 93.3596C79.5601 93.3596 79.9121 93.7556 79.9121 94.6246V98.1226H81.2431V94.5036C81.2431 92.9196 80.4291 92.2486 79.2741 92.2486C78.3281 92.2486 77.6901 92.7216 77.4151 93.2826V89.7076H76.0841V98.1226ZM84.9576 100.092H86.2886V97.2206C86.5966 97.7816 87.2566 98.2326 88.1696 98.2326C89.6546 98.2326 90.7216 97.1106 90.7216 95.2626V95.1746C90.7216 93.3156 89.6106 92.2486 88.1696 92.2486C87.3226 92.2486 86.6076 92.7436 86.2886 93.2936V92.3696H84.9576V100.092ZM87.8396 97.1766C86.8716 97.1766 86.2446 96.5716 86.2446 95.2846V95.1966C86.2446 93.9206 86.9046 93.2936 87.8286 93.2936C88.6976 93.2936 89.3576 93.9206 89.3576 95.1966V95.2846C89.3576 96.5166 88.8186 97.1766 87.8396 97.1766ZM94.2726 97.1986C93.2606 97.1986 92.6776 96.4616 92.6776 95.2846V95.1966C92.6776 94.0086 93.2826 93.2936 94.2726 93.2936C95.2626 93.2936 95.8566 94.0196 95.8566 95.2076V95.2846C95.8566 96.4616 95.2626 97.1986 94.2726 97.1986ZM94.2616 98.2326C95.9556 98.2326 97.2206 97.0666 97.2206 95.2736V95.1856C97.2206 93.4256 95.9556 92.2486 94.2726 92.2486C92.5786 92.2486 91.3136 93.4366 91.3136 95.2186V95.3066C91.3136 97.0556 92.5676 98.2326 94.2616 98.2326ZM100.161 98.2216C100.568 98.2216 100.854 98.1556 101.063 98.0786V97.0226C100.876 97.0996 100.678 97.1326 100.414 97.1326C99.9962 97.1326 99.7542 96.9016 99.7542 96.3956V93.3706H101.019V92.3696H99.7542V91.1046H98.4232V92.3696H97.6532V93.3706H98.4232V96.5166C98.4232 97.6056 99.0172 98.2216 100.161 98.2216ZM104.574 98.2326C106.048 98.2326 107.027 97.5726 107.214 96.3626H105.927C105.828 96.9236 105.41 97.2426 104.607 97.2426C103.617 97.2426 103.067 96.6266 103.023 95.5376H107.236V95.1526C107.236 93.0956 105.949 92.2486 104.519 92.2486C102.88 92.2486 101.659 93.4366 101.659 95.2186V95.3066C101.659 97.1216 102.88 98.2326 104.574 98.2326ZM103.045 94.6466C103.177 93.7556 103.716 93.2166 104.519 93.2166C105.344 93.2166 105.85 93.6566 105.916 94.6466H103.045ZM108.205 98.1226H109.536V94.7346C109.536 93.8216 110.141 93.3596 110.889 93.3596C111.681 93.3596 112.033 93.7556 112.033 94.6246V98.1226H113.364V94.5036C113.364 92.9196 112.55 92.2486 111.395 92.2486C110.449 92.2486 109.811 92.7216 109.536 93.2826V92.3696H108.205V98.1226ZM116.635 98.2216C117.042 98.2216 117.328 98.1556 117.537 98.0786V97.0226C117.35 97.0996 117.152 97.1326 116.888 97.1326C116.47 97.1326 116.228 96.9016 116.228 96.3956V93.3706H117.493V92.3696H116.228V91.1046H114.897V92.3696H114.127V93.3706H114.897V96.5166C114.897 97.6056 115.491 98.2216 116.635 98.2216ZM118.551 98.1226H119.882V92.3696H118.551V98.1226ZM119.2 91.4236C119.64 91.4236 119.992 91.0936 119.992 90.6646C119.992 90.2246 119.64 89.8946 119.2 89.8946C118.76 89.8946 118.408 90.2246 118.408 90.6646C118.408 91.0936 118.76 91.4236 119.2 91.4236ZM122.791 98.2326C123.671 98.2326 124.177 97.9136 124.551 97.4186V98.1226H125.86V94.3496C125.86 92.7766 124.848 92.2486 123.561 92.2486C122.274 92.2486 121.207 92.8096 121.097 94.1516H122.384C122.45 93.5796 122.791 93.2496 123.484 93.2496C124.265 93.2496 124.529 93.6346 124.529 94.4046V94.7016H123.814C122.164 94.7016 120.866 95.1856 120.866 96.5276C120.866 97.7266 121.735 98.2326 122.791 98.2326ZM123.11 97.2756C122.45 97.2756 122.186 96.9566 122.186 96.4726C122.186 95.7686 122.835 95.5376 123.847 95.5376H124.529V96.1096C124.529 96.8466 123.924 97.2756 123.11 97.2756ZM127.198 98.1226H128.529V89.7076H127.198V98.1226ZM134.291 98.2216C134.698 98.2216 134.984 98.1556 135.193 98.0786V97.0226C135.006 97.0996 134.808 97.1326 134.544 97.1326C134.126 97.1326 133.884 96.9016 133.884 96.3956V93.3706H135.149V92.3696H133.884V91.1046H132.553V92.3696H131.783V93.3706H132.553V96.5166C132.553 97.6056 133.147 98.2216 134.291 98.2216ZM136.173 98.1226H137.504V95.1306C137.504 93.9096 138.208 93.5356 139.374 93.5246V92.2816C138.406 92.2926 137.867 92.7216 137.504 93.4476V92.3696H136.173V98.1226ZM140.358 98.1226H141.689V92.3696H140.358V98.1226ZM141.007 91.4236C141.447 91.4236 141.799 91.0936 141.799 90.6646C141.799 90.2246 141.447 89.8946 141.007 89.8946C140.567 89.8946 140.215 90.2246 140.215 90.6646C140.215 91.0936 140.567 91.4236 141.007 91.4236ZM144.599 98.2326C145.479 98.2326 145.985 97.9136 146.359 97.4186V98.1226H147.668V94.3496C147.668 92.7766 146.656 92.2486 145.369 92.2486C144.082 92.2486 143.015 92.8096 142.905 94.1516H144.192C144.258 93.5796 144.599 93.2496 145.292 93.2496C146.073 93.2496 146.337 93.6346 146.337 94.4046V94.7016H145.622C143.972 94.7016 142.674 95.1856 142.674 96.5276C142.674 97.7266 143.543 98.2326 144.599 98.2326ZM144.918 97.2756C144.258 97.2756 143.994 96.9566 143.994 96.4726C143.994 95.7686 144.643 95.5376 145.655 95.5376H146.337V96.1096C146.337 96.8466 145.732 97.2756 144.918 97.2756ZM149.006 98.1226H150.337V89.7076H149.006V98.1226Z" fill="#1B263A"/>
<rect width="8.74454" height="8.74454" rx="4.37227" transform="matrix(-1 0 0 1 39.7754 90.3509)" fill="#9B74F0"/>
<path d="M58.0411 120.884H59.4161L60.0321 118.937H63.0351L63.6621 120.884H65.1801L62.5841 113.019H60.6701L58.0411 120.884ZM61.5391 114.218L62.6941 117.87H60.3731L61.5391 114.218ZM68.4084 120.994C69.9704 120.994 70.9714 120.059 71.0704 118.739H69.8494C69.7724 119.553 69.1674 119.971 68.4634 119.971C67.4844 119.971 66.8684 119.311 66.8684 118.057V117.969C66.8684 116.781 67.5174 116.077 68.4304 116.077C69.1344 116.077 69.6404 116.396 69.7504 117.166H71.0374C70.8834 115.582 69.6844 115.01 68.4084 115.01C66.8024 115.01 65.5044 116.165 65.5044 117.991V118.079C65.5044 119.916 66.7584 120.994 68.4084 120.994ZM74.5155 120.994C76.0775 120.994 77.0785 120.059 77.1775 118.739H75.9565C75.8795 119.553 75.2745 119.971 74.5705 119.971C73.5915 119.971 72.9755 119.311 72.9755 118.057V117.969C72.9755 116.781 73.6245 116.077 74.5375 116.077C75.2415 116.077 75.7475 116.396 75.8575 117.166H77.1445C76.9905 115.582 75.7915 115.01 74.5155 115.01C72.9095 115.01 71.6115 116.165 71.6115 117.991V118.079C71.6115 119.916 72.8655 120.994 74.5155 120.994ZM80.6777 119.96C79.6657 119.96 79.0827 119.223 79.0827 118.046V117.958C79.0827 116.77 79.6877 116.055 80.6777 116.055C81.6677 116.055 82.2617 116.781 82.2617 117.969V118.046C82.2617 119.223 81.6677 119.96 80.6777 119.96ZM80.6667 120.994C82.3607 120.994 83.6257 119.828 83.6257 118.035V117.947C83.6257 116.187 82.3607 115.01 80.6777 115.01C78.9837 115.01 77.7187 116.198 77.7187 117.98V118.068C77.7187 119.817 78.9727 120.994 80.6667 120.994ZM86.5333 120.994C87.4683 120.994 88.0733 120.543 88.3593 119.982V120.884H89.6903V115.131H88.3593V118.552C88.3593 119.465 87.7323 119.927 87.0173 119.927C86.2473 119.927 85.8843 119.531 85.8843 118.662V115.131H84.5533V118.816C84.5533 120.345 85.4003 120.994 86.5333 120.994ZM91.0484 120.884H92.3794V117.496C92.3794 116.583 92.9844 116.121 93.7324 116.121C94.5244 116.121 94.8764 116.517 94.8764 117.386V120.884H96.2074V117.265C96.2074 115.681 95.3934 115.01 94.2384 115.01C93.2924 115.01 92.6544 115.483 92.3794 116.044V115.131H91.0484V120.884ZM99.4788 120.983C99.8858 120.983 100.172 120.917 100.381 120.84V119.784C100.194 119.861 99.9958 119.894 99.7318 119.894C99.3138 119.894 99.0718 119.663 99.0718 119.157V116.132H100.337V115.131H99.0718V113.866H97.7408V115.131H96.9708V116.132H97.7408V119.278C97.7408 120.367 98.3348 120.983 99.4788 120.983ZM105.731 120.994C107.205 120.994 108.03 120.323 108.03 119.157C108.03 117.936 107.227 117.606 105.874 117.397C104.961 117.243 104.686 117.078 104.686 116.66C104.686 116.253 105.027 115.978 105.599 115.978C106.215 115.978 106.512 116.22 106.622 116.748H107.854C107.711 115.45 106.776 115.01 105.599 115.01C104.521 115.01 103.443 115.582 103.443 116.737C103.443 117.815 104.004 118.244 105.522 118.486C106.369 118.629 106.754 118.805 106.754 119.278C106.754 119.762 106.435 120.015 105.72 120.015C104.939 120.015 104.642 119.674 104.576 119.091H103.322C103.377 120.312 104.246 120.994 105.731 120.994ZM111.508 120.994C112.982 120.994 113.961 120.334 114.148 119.124H112.861C112.762 119.685 112.344 120.004 111.541 120.004C110.551 120.004 110.001 119.388 109.957 118.299H114.17V117.914C114.17 115.857 112.883 115.01 111.453 115.01C109.814 115.01 108.593 116.198 108.593 117.98V118.068C108.593 119.883 109.814 120.994 111.508 120.994ZM109.979 117.408C110.111 116.517 110.65 115.978 111.453 115.978C112.278 115.978 112.784 116.418 112.85 117.408H109.979ZM117.097 120.983C117.504 120.983 117.79 120.917 117.999 120.84V119.784C117.812 119.861 117.614 119.894 117.35 119.894C116.932 119.894 116.69 119.663 116.69 119.157V116.132H117.955V115.131H116.69V113.866H115.359V115.131H114.589V116.132H115.359V119.278C115.359 120.367 115.953 120.983 117.097 120.983ZM120.904 120.994C121.839 120.994 122.444 120.543 122.73 119.982V120.884H124.061V115.131H122.73V118.552C122.73 119.465 122.103 119.927 121.388 119.927C120.618 119.927 120.255 119.531 120.255 118.662V115.131H118.924V118.816C118.924 120.345 119.771 120.994 120.904 120.994ZM125.42 122.853H126.751V119.982C127.059 120.543 127.719 120.994 128.632 120.994C130.117 120.994 131.184 119.872 131.184 118.024V117.936C131.184 116.077 130.073 115.01 128.632 115.01C127.785 115.01 127.07 115.505 126.751 116.055V115.131H125.42V122.853ZM128.302 119.938C127.334 119.938 126.707 119.333 126.707 118.046V117.958C126.707 116.682 127.367 116.055 128.291 116.055C129.16 116.055 129.82 116.682 129.82 117.958V118.046C129.82 119.278 129.281 119.938 128.302 119.938ZM134.793 120.884H136.124V116.132H137.433V115.131H136.124V114.306C136.124 113.811 136.344 113.459 136.883 113.459C137.125 113.459 137.334 113.503 137.488 113.558V112.524C137.246 112.447 137.048 112.414 136.729 112.414C135.497 112.414 134.793 113.096 134.793 114.361V115.131H134.012V116.132H134.793V120.884ZM139.727 120.994C140.607 120.994 141.113 120.675 141.487 120.18V120.884H142.796V117.111C142.796 115.538 141.784 115.01 140.497 115.01C139.21 115.01 138.143 115.571 138.033 116.913H139.32C139.386 116.341 139.727 116.011 140.42 116.011C141.201 116.011 141.465 116.396 141.465 117.166V117.463H140.75C139.1 117.463 137.802 117.947 137.802 119.289C137.802 120.488 138.671 120.994 139.727 120.994ZM140.046 120.037C139.386 120.037 139.122 119.718 139.122 119.234C139.122 118.53 139.771 118.299 140.783 118.299H141.465V118.871C141.465 119.608 140.86 120.037 140.046 120.037ZM144.134 120.884H145.465V115.131H144.134V120.884ZM144.783 114.185C145.223 114.185 145.575 113.855 145.575 113.426C145.575 112.986 145.223 112.656 144.783 112.656C144.343 112.656 143.991 112.986 143.991 113.426C143.991 113.855 144.343 114.185 144.783 114.185ZM146.9 120.884H148.231V112.469H146.9V120.884ZM152.164 120.994C153.638 120.994 154.617 120.334 154.804 119.124H153.517C153.418 119.685 153 120.004 152.197 120.004C151.207 120.004 150.657 119.388 150.613 118.299H154.826V117.914C154.826 115.857 153.539 115.01 152.109 115.01C150.47 115.01 149.249 116.198 149.249 117.98V118.068C149.249 119.883 150.47 120.994 152.164 120.994ZM150.635 117.408C150.767 116.517 151.306 115.978 152.109 115.978C152.934 115.978 153.44 116.418 153.506 117.408H150.635ZM157.951 120.994C158.798 120.994 159.535 120.488 159.843 119.916V120.884H161.174V112.469H159.843V116.011C159.524 115.439 158.941 115.01 158.006 115.01C156.51 115.01 155.421 116.176 155.421 118.013V118.101C155.421 119.971 156.51 120.994 157.951 120.994ZM158.281 119.938C157.423 119.938 156.785 119.333 156.785 118.068V117.98C156.785 116.737 157.357 116.055 158.336 116.055C159.304 116.055 159.887 116.682 159.887 117.947V118.035C159.887 119.322 159.205 119.938 158.281 119.938Z" fill="#1B263A"/>
<rect width="8.74454" height="8.74454" rx="4.37227" transform="matrix(-1 0 0 1 39.7754 112.512)" fill="#66ACF4"/>
<path d="M62.0911 143.756C63.9611 143.756 65.3031 142.799 65.5341 140.907H64.1041C63.9501 142.018 63.1801 142.568 62.0911 142.568C60.6391 142.568 59.7921 141.523 59.7921 139.752V139.664C59.7921 137.904 60.6941 136.826 62.0801 136.826C63.2131 136.826 63.7961 137.365 63.9611 138.41H65.4461C65.2701 136.562 63.8731 135.66 62.0691 135.66C59.8801 135.66 58.2521 137.31 58.2521 139.675V139.763C58.2521 142.183 59.6271 143.756 62.0911 143.756ZM66.4714 143.646H67.8024V140.258C67.8024 139.345 68.4074 138.883 69.1554 138.883C69.9474 138.883 70.2994 139.279 70.2994 140.148V143.646H71.6304V140.027C71.6304 138.443 70.8164 137.772 69.6614 137.772C68.7154 137.772 68.0774 138.245 67.8024 138.806V135.231H66.4714V143.646ZM74.8688 143.756C75.8038 143.756 76.4088 143.305 76.6948 142.744V143.646H78.0258V137.893H76.6948V141.314C76.6948 142.227 76.0678 142.689 75.3528 142.689C74.5828 142.689 74.2198 142.293 74.2198 141.424V137.893H72.8888V141.578C72.8888 143.107 73.7358 143.756 74.8688 143.756ZM79.384 143.646H80.715V140.654C80.715 139.433 81.419 139.059 82.585 139.048V137.805C81.617 137.816 81.078 138.245 80.715 138.971V137.893H79.384V143.646ZM83.536 143.646H84.867V140.258C84.867 139.345 85.472 138.883 86.22 138.883C87.012 138.883 87.364 139.279 87.364 140.148V143.646H88.695V140.027C88.695 138.443 87.881 137.772 86.726 137.772C85.78 137.772 85.142 138.245 84.867 138.806V137.893H83.536V143.646ZM92.4095 143.646H93.7405V140.654C93.7405 139.433 94.4445 139.059 95.6105 139.048V137.805C94.6425 137.816 94.1035 138.245 93.7405 138.971V137.893H92.4095V143.646ZM96.5946 143.646H97.9256V137.893H96.5946V143.646ZM97.2436 136.947C97.6836 136.947 98.0356 136.617 98.0356 136.188C98.0356 135.748 97.6836 135.418 97.2436 135.418C96.8036 135.418 96.4516 135.748 96.4516 136.188C96.4516 136.617 96.8036 136.947 97.2436 136.947ZM101.297 143.756C102.771 143.756 103.596 143.085 103.596 141.919C103.596 140.698 102.793 140.368 101.44 140.159C100.527 140.005 100.252 139.84 100.252 139.422C100.252 139.015 100.593 138.74 101.165 138.74C101.781 138.74 102.078 138.982 102.188 139.51H103.42C103.277 138.212 102.342 137.772 101.165 137.772C100.087 137.772 99.0089 138.344 99.0089 139.499C99.0089 140.577 99.5699 141.006 101.088 141.248C101.935 141.391 102.32 141.567 102.32 142.04C102.32 142.524 102.001 142.777 101.286 142.777C100.505 142.777 100.208 142.436 100.142 141.853H98.8879C98.9429 143.074 99.8119 143.756 101.297 143.756ZM104.543 143.646H105.874V140.819L108.03 143.646H109.57L107.15 140.533L109.383 137.893H107.931L105.874 140.423V135.231H104.543V143.646Z" fill="#1B263A"/>
<rect width="8.74454" height="8.74454" rx="4.37227" transform="matrix(-1 0 0 1 39.7754 135.274)" fill="#FBB646"/>
<path d="M58.6481 166.408H63.4661V165.242H60.1111V158.543H58.6481V166.408ZM66.8433 165.484C65.8313 165.484 65.2483 164.747 65.2483 163.57V163.482C65.2483 162.294 65.8533 161.579 66.8433 161.579C67.8333 161.579 68.4273 162.305 68.4273 163.493V163.57C68.4273 164.747 67.8333 165.484 66.8433 165.484ZM66.8323 166.518C68.5263 166.518 69.7913 165.352 69.7913 163.559V163.471C69.7913 161.711 68.5263 160.534 66.8433 160.534C65.1493 160.534 63.8843 161.722 63.8843 163.504V163.592C63.8843 165.341 65.1383 166.518 66.8323 166.518ZM71.8007 166.408H73.1647L74.3307 162.536L75.3977 166.408H76.7507L78.5547 160.655H77.2567L76.0577 164.813L74.9357 160.655H73.8247L72.6037 164.813L71.4597 160.655H70.0407L71.8007 166.408ZM84.8878 166.518C86.9668 166.518 88.0778 165.385 88.0778 163.328V158.543H86.6038V163.207C86.6038 164.835 86.0318 165.341 84.8988 165.341C83.7328 165.341 83.2708 164.747 83.2708 163.306V158.543H81.7968V163.416C81.7968 165.44 82.9188 166.518 84.8878 166.518ZM91.3973 166.518C92.8713 166.518 93.6963 165.847 93.6963 164.681C93.6963 163.46 92.8933 163.13 91.5403 162.921C90.6273 162.767 90.3523 162.602 90.3523 162.184C90.3523 161.777 90.6933 161.502 91.2653 161.502C91.8813 161.502 92.1783 161.744 92.2883 162.272H93.5203C93.3773 160.974 92.4423 160.534 91.2653 160.534C90.1873 160.534 89.1093 161.106 89.1093 162.261C89.1093 163.339 89.6703 163.768 91.1883 164.01C92.0353 164.153 92.4203 164.329 92.4203 164.802C92.4203 165.286 92.1013 165.539 91.3863 165.539C90.6053 165.539 90.3083 165.198 90.2423 164.615H88.9883C89.0433 165.836 89.9123 166.518 91.3973 166.518ZM97.1739 166.518C98.6479 166.518 99.6269 165.858 99.8139 164.648H98.5269C98.4279 165.209 98.0099 165.528 97.2069 165.528C96.2169 165.528 95.6669 164.912 95.6229 163.823H99.8359V163.438C99.8359 161.381 98.5489 160.534 97.1189 160.534C95.4799 160.534 94.2589 161.722 94.2589 163.504V163.592C94.2589 165.407 95.4799 166.518 97.1739 166.518ZM95.6449 162.932C95.7769 162.041 96.3159 161.502 97.1189 161.502C97.9439 161.502 98.4499 161.942 98.5159 162.932H95.6449ZM100.805 166.408H102.136V163.416C102.136 162.195 102.84 161.821 104.006 161.81V160.567C103.038 160.578 102.499 161.007 102.136 161.733V160.655H100.805V166.408ZM107.468 166.408H112.572V165.253H108.931V162.954H111.703V161.854H108.931V159.698H112.385V158.543H107.468V166.408ZM113.562 166.408H114.893V163.02C114.893 162.107 115.498 161.645 116.246 161.645C117.038 161.645 117.39 162.041 117.39 162.91V166.408H118.721V162.789C118.721 161.205 117.907 160.534 116.752 160.534C115.806 160.534 115.168 161.007 114.893 161.568V160.655H113.562V166.408ZM122.487 168.52C124.269 168.52 125.402 167.673 125.413 165.979V160.655H124.082V161.535C123.752 160.963 123.18 160.534 122.234 160.534C120.749 160.534 119.649 161.744 119.649 163.361V163.438C119.649 165.099 120.76 166.177 122.201 166.177C123.048 166.177 123.763 165.66 124.082 165.11V165.957C124.082 166.991 123.51 167.508 122.476 167.508C121.607 167.508 121.167 167.178 121.057 166.606H119.715C119.869 167.706 120.683 168.52 122.487 168.52ZM122.531 165.154C121.673 165.154 121.013 164.494 121.013 163.427V163.339C121.013 162.294 121.585 161.579 122.575 161.579C123.532 161.579 124.126 162.228 124.126 163.317V163.394C124.126 164.494 123.455 165.154 122.531 165.154ZM128.282 166.518C129.162 166.518 129.668 166.199 130.042 165.704V166.408H131.351V162.635C131.351 161.062 130.339 160.534 129.052 160.534C127.765 160.534 126.698 161.095 126.588 162.437H127.875C127.941 161.865 128.282 161.535 128.975 161.535C129.756 161.535 130.02 161.92 130.02 162.69V162.987H129.305C127.655 162.987 126.357 163.471 126.357 164.813C126.357 166.012 127.226 166.518 128.282 166.518ZM128.601 165.561C127.941 165.561 127.677 165.242 127.677 164.758C127.677 164.054 128.326 163.823 129.338 163.823H130.02V164.395C130.02 165.132 129.415 165.561 128.601 165.561ZM135.11 168.52C136.892 168.52 138.025 167.673 138.036 165.979V160.655H136.705V161.535C136.375 160.963 135.803 160.534 134.857 160.534C133.372 160.534 132.272 161.744 132.272 163.361V163.438C132.272 165.099 133.383 166.177 134.824 166.177C135.671 166.177 136.386 165.66 136.705 165.11V165.957C136.705 166.991 136.133 167.508 135.099 167.508C134.23 167.508 133.79 167.178 133.68 166.606H132.338C132.492 167.706 133.306 168.52 135.11 168.52ZM135.154 165.154C134.296 165.154 133.636 164.494 133.636 163.427V163.339C133.636 162.294 134.208 161.579 135.198 161.579C136.155 161.579 136.749 162.228 136.749 163.317V163.394C136.749 164.494 136.078 165.154 135.154 165.154ZM141.928 166.518C143.402 166.518 144.381 165.858 144.568 164.648H143.281C143.182 165.209 142.764 165.528 141.961 165.528C140.971 165.528 140.421 164.912 140.377 163.823H144.59V163.438C144.59 161.381 143.303 160.534 141.873 160.534C140.234 160.534 139.013 161.722 139.013 163.504V163.592C139.013 165.407 140.234 166.518 141.928 166.518ZM140.399 162.932C140.531 162.041 141.07 161.502 141.873 161.502C142.698 161.502 143.204 161.942 143.27 162.932H140.399ZM145.558 166.408H146.889V162.965C146.889 162.085 147.494 161.645 148.154 161.645C148.803 161.645 149.177 162.008 149.177 162.855V166.408H150.508V162.965C150.508 162.085 151.113 161.645 151.773 161.645C152.433 161.645 152.796 162.008 152.796 162.855V166.408H154.127V162.767C154.127 161.183 153.269 160.534 152.213 160.534C151.498 160.534 150.706 160.853 150.266 161.568C149.98 160.853 149.386 160.534 148.638 160.534C147.791 160.534 147.164 160.996 146.889 161.535V160.655H145.558V166.408ZM157.966 166.518C159.44 166.518 160.419 165.858 160.606 164.648H159.319C159.22 165.209 158.802 165.528 157.999 165.528C157.009 165.528 156.459 164.912 156.415 163.823H160.628V163.438C160.628 161.381 159.341 160.534 157.911 160.534C156.272 160.534 155.051 161.722 155.051 163.504V163.592C155.051 165.407 156.272 166.518 157.966 166.518ZM156.437 162.932C156.569 162.041 157.108 161.502 157.911 161.502C158.736 161.502 159.242 161.942 159.308 162.932H156.437ZM161.597 166.408H162.928V163.02C162.928 162.107 163.533 161.645 164.281 161.645C165.073 161.645 165.425 162.041 165.425 162.91V166.408H166.756V162.789C166.756 161.205 165.942 160.534 164.787 160.534C163.841 160.534 163.203 161.007 162.928 161.568V160.655H161.597V166.408ZM170.027 166.507C170.434 166.507 170.72 166.441 170.929 166.364V165.308C170.742 165.385 170.544 165.418 170.28 165.418C169.862 165.418 169.62 165.187 169.62 164.681V161.656H170.885V160.655H169.62V159.39H168.289V160.655H167.519V161.656H168.289V164.802C168.289 165.891 168.883 166.507 170.027 166.507Z" fill="#1B263A"/>
<rect width="8.74454" height="8.74454" rx="4.37227" transform="matrix(-1 0 0 1 39.7754 158.035)" fill="#F09EE3"/>
<mask id="mask0_554_7197" style="mask-type:alpha" maskUnits="userSpaceOnUse" x="269" y="60" width="109" height="110">
<circle cx="323.506" cy="114.884" r="52.6976" stroke="black" stroke-width="3"/>
</mask>
<g mask="url(#mask0_554_7197)">
<path d="M302.729 94.919L271.805 78.3252L306.751 49.4119L362.064 47.9033L388.966 74.3026L385.697 115.284L342.453 119.81L302.729 94.919Z" fill="#F87777"/>
<path d="M383.364 114.707H370.819L361.633 132.631L381.797 139.576L387.174 134.871L383.364 114.707Z" fill="#9B74F0"/>
<path d="M385.415 138.266L368.217 133.489L344.492 143.795L369.662 157.579L385.415 138.266Z" fill="#66ACF4"/>
<path d="M367.58 156.208L357.813 149.838L284.571 148.765L276.074 168.67L332.635 172.555L367.58 156.208Z" fill="#FBB646"/>
<path d="M284.557 83.6243L278.76 79.8347L270.067 77.1596L241.756 115.502L280.099 154.96L294.143 143.368L284.557 83.6243Z" fill="#F09EE3"/>
</g>
<defs>
<filter id="filter0_d_554_7197" x="0.0898438" y="0.262207" width="410.393" height="197.632" filterUnits="userSpaceOnUse" color-interpolation-filters="sRGB">
<feFlood flood-opacity="0" result="BackgroundImageFix"/>
<feColorMatrix in="SourceAlpha" type="matrix" values="0 0 0 0 0 0 0 0 0 0 0 0 0 0 0 0 0 0 127 0" result="hardAlpha"/>
<feOffset dy="4.71"/>
<feGaussianBlur stdDeviation="2"/>
<feColorMatrix type="matrix" values="0 0 0 0 0.133333 0 0 0 0 0.133333 0 0 0 0 0.27451 0 0 0 0.03 0"/>
<feBlend mode="normal" in2="BackgroundImageFix" result="effect1_dropShadow_554_7197"/>
<feBlend mode="normal" in="SourceGraphic" in2="effect1_dropShadow_554_7197" result="shape"/>
</filter>
</defs>
</svg>
