<svg width="588" height="175" viewBox="0 0 588 175" fill="none" xmlns="http://www.w3.org/2000/svg">
<g filter="url(#filter0_d_554_7086)">
<path d="M33 25.8113H606.665V107.151H33V25.8113Z" fill="white"/>
</g>
<path d="M357.322 71.5576H358.918V67.5496L362.218 71.5576H364.102L360.37 67.0696L363.922 62.9656H362.206L358.918 66.8656V62.9776H357.322V71.5576ZM367.21 71.6776C368.818 71.6776 369.886 70.9576 370.09 69.6376H368.686C368.578 70.2496 368.122 70.5976 367.246 70.5976C366.166 70.5976 365.566 69.9256 365.518 68.7376H370.114V68.3176C370.114 66.0736 368.71 65.1496 367.15 65.1496C365.362 65.1496 364.03 66.4456 364.03 68.3896V68.4856C364.03 70.4656 365.362 71.6776 367.21 71.6776ZM365.542 67.7656C365.686 66.7936 366.274 66.2056 367.15 66.2056C368.05 66.2056 368.602 66.6856 368.674 67.7656H365.542ZM372.698 71.5576H374.39L376.658 65.2816H375.23L373.61 70.0696L371.966 65.2816H370.406L372.698 71.5576ZM377.53 71.5576H378.982V65.2816H377.53V71.5576ZM378.238 64.2496C378.718 64.2496 379.102 63.8896 379.102 63.4216C379.102 62.9416 378.718 62.5816 378.238 62.5816C377.758 62.5816 377.374 62.9416 377.374 63.4216C377.374 63.8896 377.758 64.2496 378.238 64.2496ZM380.511 71.5576H381.963V67.8616C381.963 66.8656 382.623 66.3616 383.439 66.3616C384.303 66.3616 384.687 66.7936 384.687 67.7416V71.5576H386.139V67.6096C386.139 65.8816 385.251 65.1496 383.991 65.1496C382.959 65.1496 382.263 65.6656 381.963 66.2776V65.2816H380.511V71.5576ZM390.312 71.5576H391.908V68.0416H394.836V66.8056H391.908V64.2496H395.628V62.9776H390.312V71.5576Z" fill="#1B263A"/>
<path d="M434.437 71.5576H435.877V65.0776L438.481 71.5576H438.997L441.553 65.0776V71.5576H443.149V62.9776H441.037L438.829 68.8336L436.573 62.9776H434.437V71.5576ZM446.338 71.6776C447.298 71.6776 447.85 71.3296 448.258 70.7896V71.5576H449.686V67.4416C449.686 65.7256 448.582 65.1496 447.178 65.1496C445.774 65.1496 444.61 65.7616 444.49 67.2256H445.894C445.966 66.6016 446.338 66.2416 447.094 66.2416C447.946 66.2416 448.234 66.6616 448.234 67.5016V67.8256H447.454C445.654 67.8256 444.238 68.3536 444.238 69.8176C444.238 71.1256 445.186 71.6776 446.338 71.6776ZM446.686 70.6336C445.966 70.6336 445.678 70.2856 445.678 69.7576C445.678 68.9896 446.386 68.7376 447.49 68.7376H448.234V69.3616C448.234 70.1656 447.574 70.6336 446.686 70.6336ZM451.631 73.7056H453.059L456.479 65.2816H455.063L453.527 69.3256L451.859 65.2816H450.287L452.771 70.9216L451.631 73.7056ZM462.731 71.6776C464.699 71.6776 465.947 70.6936 465.947 69.1096C465.947 67.9696 465.287 67.2616 464.291 67.0336C465.119 66.7216 465.683 66.1336 465.683 65.1616C465.683 63.8896 464.639 62.8576 462.851 62.8576C461.015 62.8576 459.899 63.9976 459.815 65.4856H461.231C461.327 64.6216 461.915 64.0696 462.827 64.0696C463.715 64.0696 464.159 64.5856 464.159 65.2816C464.159 66.0856 463.715 66.5416 462.731 66.5416H462.119V67.6816H462.779C463.823 67.6816 464.327 68.1496 464.327 69.0856C464.327 69.9376 463.811 70.4776 462.695 70.4776C461.543 70.4776 461.039 69.8056 460.955 68.9056H459.503C459.575 70.5496 460.691 71.6776 462.731 71.6776ZM470.568 70.4056C469.284 70.4056 468.54 69.4216 468.54 67.4776V67.0456C468.54 65.1376 469.248 64.1056 470.544 64.1056C471.828 64.1056 472.524 65.2096 472.524 67.0336V67.4536C472.524 69.3976 471.888 70.4056 470.568 70.4056ZM470.532 71.6776C472.776 71.6776 474.12 70.0336 474.12 67.4536V67.0216C474.12 64.4416 472.704 62.8576 470.532 62.8576C468.372 62.8576 466.932 64.4536 466.932 67.0576V67.4896C466.932 70.0696 468.348 71.6776 470.532 71.6776Z" fill="#1B263A"/>
<rect x="255.314" y="53.7654" width="75.5842" height="26.5842" rx="4.64604" fill="#85F1F0" fill-opacity="0.5"/>
<path d="M268.421 69.2669C267.362 69.2669 266.588 68.4438 266.588 67.1724V67.1072C266.588 65.8521 267.264 65.0126 268.405 65.0126C269.546 65.0126 270.214 65.901 270.214 67.099V67.1642C270.214 68.4275 269.522 69.2669 268.421 69.2669ZM268.405 70.139C270.174 70.139 271.339 68.8594 271.339 67.1561V67.0909C271.339 65.3794 270.141 64.1487 268.405 64.1487C266.677 64.1487 265.455 65.412 265.455 67.1153V67.1805C265.455 68.8594 266.62 70.139 268.405 70.139ZM272.386 70.0575H273.372V65.5913L275.996 70.0575H277.121V64.2302H276.135V68.4438L273.682 64.2302H272.386V70.0575ZM278.459 70.0575H280.7C281.979 70.0575 282.697 69.5114 282.697 68.4275V68.3949C282.697 67.6206 282.322 67.1887 281.531 67.0175C282.191 66.8138 282.452 66.3574 282.452 65.7787V65.7461C282.452 64.6866 281.743 64.2302 280.545 64.2302H278.459V70.0575ZM279.518 69.2832V67.4169H280.496C281.295 67.4169 281.629 67.7184 281.629 68.3215V68.3541C281.629 68.9572 281.295 69.2832 280.57 69.2832H279.518ZM279.518 66.6834V65.0045H280.398C281.091 65.0045 281.409 65.2408 281.409 65.795V65.8276C281.409 66.4226 281.132 66.6834 280.415 66.6834H279.518ZM286.385 69.2669C285.325 69.2669 284.551 68.4438 284.551 67.1724V67.1072C284.551 65.8521 285.227 65.0126 286.368 65.0126C287.509 65.0126 288.178 65.901 288.178 67.099V67.1642C288.178 68.4275 287.485 69.2669 286.385 69.2669ZM286.368 70.139C288.137 70.139 289.302 68.8594 289.302 67.1561V67.0909C289.302 65.3794 288.104 64.1487 286.368 64.1487C284.641 64.1487 283.418 65.412 283.418 67.1153V67.1805C283.418 68.8594 284.584 70.139 286.368 70.139ZM289.575 70.0575H290.594L291.05 68.6149H293.275L293.739 70.0575H294.864L292.941 64.2302H291.523L289.575 70.0575ZM292.167 65.1186L293.022 67.8244H291.303L292.167 65.1186ZM295.754 70.0575H296.837V67.7021H297.53L299.054 70.0575H300.228L298.59 67.5391C299.315 67.3517 299.886 66.8871 299.886 65.9743V65.9417C299.886 64.7518 298.989 64.2302 297.71 64.2302H295.754V70.0575ZM296.837 66.9279V65.0697H297.71C298.402 65.0697 298.818 65.2979 298.818 65.9662V65.9988C298.818 66.6182 298.435 66.9279 297.71 66.9279H296.837ZM302.178 69.2017V65.086H302.806C304.175 65.086 304.745 65.8439 304.745 67.099V67.1642C304.745 68.4519 304.118 69.2017 302.814 69.2017H302.178ZM301.094 70.0575H302.846C304.892 70.0575 305.878 68.8513 305.878 67.1561V67.0827C305.878 65.3875 304.892 64.2302 302.863 64.2302H301.094V70.0575ZM306.945 70.0575H308.037V64.2302H306.945V70.0575ZM309.411 70.0575H310.397V65.5913L313.022 70.0575H314.146V64.2302H313.16V68.4438L310.707 64.2302H309.411V70.0575ZM318.1 70.139C319.746 70.139 320.757 69.161 320.757 67.5473V67.0094H318.222V67.8244H319.689C319.657 68.6312 319.208 69.2914 318.116 69.2914C316.894 69.2914 316.315 68.4356 316.315 67.1887V67.1235C316.315 65.8439 316.975 64.9963 318.116 64.9963C318.874 64.9963 319.396 65.3305 319.526 66.1047H320.61C320.455 64.7111 319.347 64.1406 318.1 64.1406C316.397 64.1406 315.19 65.3794 315.19 67.1153V67.1805C315.19 68.9002 316.234 70.139 318.1 70.139Z" fill="#1B263A"/>
<line x1="111.909" y1="78.3847" x2="167.184" y2="78.3848" stroke="#D5DDE2" stroke-width="3.71683" stroke-linecap="round" stroke-linejoin="round"/>
<path d="M111.035 64.564H116.603V63.304H112.631V60.796H115.655V59.596H112.631V57.244H116.399V55.984H111.035V64.564ZM117.683 64.564H119.135V60.868C119.135 59.872 119.795 59.368 120.611 59.368C121.475 59.368 121.859 59.8 121.859 60.748V64.564H123.311V60.616C123.311 58.888 122.423 58.156 121.163 58.156C120.131 58.156 119.435 58.672 119.135 59.284V58.288H117.683V64.564ZM126.387 64.684C127.347 64.684 127.899 64.336 128.307 63.796V64.564H129.735V60.448C129.735 58.732 128.631 58.156 127.227 58.156C125.823 58.156 124.659 58.768 124.539 60.232H125.943C126.015 59.608 126.387 59.248 127.143 59.248C127.995 59.248 128.283 59.668 128.283 60.508V60.832H127.503C125.703 60.832 124.287 61.36 124.287 62.824C124.287 64.132 125.235 64.684 126.387 64.684ZM126.735 63.64C126.015 63.64 125.727 63.292 125.727 62.764C125.727 61.996 126.435 61.744 127.539 61.744H128.283V62.368C128.283 63.172 127.623 63.64 126.735 63.64ZM134.664 64.684C136.284 64.684 137.448 63.46 137.448 61.444V61.348C137.448 59.32 136.236 58.156 134.664 58.156C133.74 58.156 132.96 58.696 132.612 59.296V55.384H131.16V64.564H132.612V63.556C132.948 64.192 133.668 64.684 134.664 64.684ZM134.304 63.532C133.248 63.532 132.564 62.872 132.564 61.468V61.372C132.564 59.98 133.284 59.296 134.292 59.296C135.24 59.296 135.96 59.98 135.96 61.372V61.468C135.96 62.812 135.372 63.532 134.304 63.532ZM138.549 64.564H140.001V55.384H138.549V64.564ZM144.291 64.684C145.899 64.684 146.967 63.964 147.171 62.644H145.767C145.659 63.256 145.203 63.604 144.327 63.604C143.247 63.604 142.647 62.932 142.599 61.744H147.195V61.324C147.195 59.08 145.791 58.156 144.231 58.156C142.443 58.156 141.111 59.452 141.111 61.396V61.492C141.111 63.472 142.443 64.684 144.291 64.684ZM142.623 60.772C142.767 59.8 143.355 59.212 144.231 59.212C145.131 59.212 145.683 59.692 145.755 60.772H142.623ZM153.907 64.684C155.803 64.684 157.063 63.52 157.063 62.032C157.063 60.316 156.02 59.74 154.003 59.464C152.515 59.248 152.227 58.9 152.227 58.204C152.227 57.544 152.731 57.076 153.704 57.076C154.687 57.076 155.204 57.46 155.359 58.36H156.823C156.655 56.716 155.551 55.876 153.704 55.876C151.915 55.876 150.715 56.932 150.715 58.336C150.715 59.944 151.687 60.568 153.739 60.844C155.131 61.072 155.527 61.372 155.527 62.164C155.527 62.956 154.855 63.484 153.907 63.484C152.455 63.484 152.107 62.764 151.999 61.9H150.463C150.583 63.52 151.567 64.684 153.907 64.684ZM159.893 64.684C160.853 64.684 161.405 64.336 161.813 63.796V64.564H163.241V60.448C163.241 58.732 162.137 58.156 160.733 58.156C159.329 58.156 158.165 58.768 158.045 60.232H159.449C159.521 59.608 159.893 59.248 160.649 59.248C161.501 59.248 161.789 59.668 161.789 60.508V60.832H161.009C159.209 60.832 157.793 61.36 157.793 62.824C157.793 64.132 158.741 64.684 159.893 64.684ZM160.241 63.64C159.521 63.64 159.233 63.292 159.233 62.764C159.233 61.996 159.941 61.744 161.045 61.744H161.789V62.368C161.789 63.172 161.129 63.64 160.241 63.64ZM164.701 64.564H166.153V55.384H164.701V64.564ZM170.443 64.684C172.051 64.684 173.119 63.964 173.323 62.644H171.919C171.811 63.256 171.355 63.604 170.479 63.604C169.399 63.604 168.799 62.932 168.751 61.744H173.347V61.324C173.347 59.08 171.943 58.156 170.383 58.156C168.595 58.156 167.263 59.452 167.263 61.396V61.492C167.263 63.472 168.595 64.684 170.443 64.684ZM168.775 60.772C168.919 59.8 169.507 59.212 170.383 59.212C171.283 59.212 171.835 59.692 171.907 60.772H168.775ZM176.61 64.684C178.218 64.684 179.118 63.952 179.118 62.68C179.118 61.348 178.242 60.988 176.766 60.76C175.77 60.592 175.47 60.412 175.47 59.956C175.47 59.512 175.842 59.212 176.466 59.212C177.138 59.212 177.462 59.476 177.582 60.052H178.926C178.77 58.636 177.75 58.156 176.466 58.156C175.29 58.156 174.114 58.78 174.114 60.04C174.114 61.216 174.726 61.684 176.382 61.948C177.306 62.104 177.726 62.296 177.726 62.812C177.726 63.34 177.378 63.616 176.598 63.616C175.746 63.616 175.422 63.244 175.35 62.608H173.982C174.042 63.94 174.99 64.684 176.61 64.684ZM180.404 64.564H181.856V59.38H183.284V58.288H181.856V57.388C181.856 56.848 182.096 56.464 182.684 56.464C182.948 56.464 183.176 56.512 183.344 56.572V55.444C183.08 55.36 182.864 55.324 182.516 55.324C181.172 55.324 180.404 56.068 180.404 57.448V58.288H179.552V59.38H180.404V64.564ZM186.833 63.556C185.729 63.556 185.093 62.752 185.093 61.468V61.372C185.093 60.076 185.753 59.296 186.833 59.296C187.913 59.296 188.561 60.088 188.561 61.384V61.468C188.561 62.752 187.913 63.556 186.833 63.556ZM186.821 64.684C188.669 64.684 190.049 63.412 190.049 61.456V61.36C190.049 59.44 188.669 58.156 186.833 58.156C184.985 58.156 183.605 59.452 183.605 61.396V61.492C183.605 63.4 184.973 64.684 186.821 64.684ZM191.121 64.564H192.573V61.3C192.573 59.968 193.341 59.56 194.613 59.548V58.192C193.557 58.204 192.969 58.672 192.573 59.464V58.288H191.121V64.564ZM198.282 64.684C199.986 64.684 201.078 63.664 201.186 62.224H199.854C199.77 63.112 199.11 63.568 198.342 63.568C197.274 63.568 196.602 62.848 196.602 61.48V61.384C196.602 60.088 197.31 59.32 198.306 59.32C199.074 59.32 199.626 59.668 199.746 60.508H201.15C200.982 58.78 199.674 58.156 198.282 58.156C196.53 58.156 195.114 59.416 195.114 61.408V61.504C195.114 63.508 196.482 64.684 198.282 64.684ZM204.956 64.684C206.564 64.684 207.632 63.964 207.836 62.644H206.432C206.324 63.256 205.868 63.604 204.992 63.604C203.912 63.604 203.312 62.932 203.264 61.744H207.86V61.324C207.86 59.08 206.456 58.156 204.896 58.156C203.108 58.156 201.776 59.452 201.776 61.396V61.492C201.776 63.472 203.108 64.684 204.956 64.684ZM203.288 60.772C203.432 59.8 204.02 59.212 204.896 59.212C205.796 59.212 206.348 59.692 206.42 60.772H203.288Z" fill="#1B263A"/>
<rect x="67.1328" y="52.6355" width="29.3304" height="28.8444" rx="5" fill="#EBF0F3"/>
<rect x="497.377" y="53.7654" width="75.5842" height="26.5842" rx="5" fill="#134AE9" fill-opacity="0.2"/>
<path d="M524.644 70.0576H525.679L526.861 65.8115L528.01 70.0576H529.094L530.553 64.2304H529.542L528.499 68.5336L527.341 64.2304H526.445L525.312 68.5091L524.302 64.2304H523.193L524.644 70.0576ZM533.9 69.2671C532.84 69.2671 532.066 68.4439 532.066 67.1725V67.1073C532.066 65.8522 532.742 65.0128 533.883 65.0128C535.024 65.0128 535.693 65.9011 535.693 67.0992V67.1644C535.693 68.4276 535 69.2671 533.9 69.2671ZM533.883 70.1391C535.652 70.1391 536.817 68.8596 536.817 67.1562V67.091C536.817 65.3795 535.619 64.1489 533.883 64.1489C532.156 64.1489 530.933 65.4121 530.933 67.1155V67.1807C530.933 68.8596 532.099 70.1391 533.883 70.1391ZM537.864 70.0576H538.948V67.7023H539.641L541.165 70.0576H542.339L540.7 67.5393C541.426 67.3518 541.996 66.8873 541.996 65.9745V65.9419C541.996 64.752 541.1 64.2304 539.82 64.2304H537.864V70.0576ZM538.948 66.928V65.0698H539.82C540.513 65.0698 540.929 65.298 540.929 65.9663V65.9989C540.929 66.6183 540.546 66.928 539.82 66.928H538.948ZM543.205 70.0576H544.289V67.3355L546.53 70.0576H547.809L545.275 67.0095L547.687 64.2222H546.522L544.289 66.871V64.2304H543.205V70.0576ZM548.61 70.0576H549.702V64.2304H548.61V70.0576ZM551.076 70.0576H552.062V65.5914L554.687 70.0576H555.811V64.2304H554.825V68.4439L552.372 64.2304H551.076V70.0576ZM559.765 70.1391C561.411 70.1391 562.422 69.1611 562.422 67.5474V67.0095H559.887V67.8245H561.354C561.322 68.6314 560.873 69.2915 559.781 69.2915C558.559 69.2915 557.98 68.4358 557.98 67.1888V67.1236C557.98 65.8441 558.64 64.9965 559.781 64.9965C560.539 64.9965 561.061 65.3306 561.191 66.1049H562.275C562.12 64.7112 561.012 64.1407 559.765 64.1407C558.062 64.1407 556.855 65.3795 556.855 67.1155V67.1807C556.855 68.9003 557.899 70.1391 559.765 70.1391Z" fill="#1B263A"/>
<circle r="2.84131" transform="matrix(-1 0 0 1 510.549 67.0576)" fill="#134AE9"/>
<defs>
<filter id="filter0_d_554_7086" x="0.477707" y="0.0608597" width="666.587" height="174.26" filterUnits="userSpaceOnUse" color-interpolation-filters="sRGB">
<feFlood flood-opacity="0" result="BackgroundImageFix"/>
<feColorMatrix in="SourceAlpha" type="matrix" values="0 0 0 0 0 0 0 0 0 0 0 0 0 0 0 0 0 0 127 0" result="hardAlpha"/>
<feOffset dx="13.9381" dy="20.71"/>
<feGaussianBlur stdDeviation="23.2302"/>
<feColorMatrix type="matrix" values="0 0 0 0 0.133333 0 0 0 0 0.133333 0 0 0 0 0.27451 0 0 0 0.1 0"/>
<feBlend mode="normal" in2="BackgroundImageFix" result="effect1_dropShadow_554_7086"/>
<feBlend mode="normal" in="SourceGraphic" in2="effect1_dropShadow_554_7086" result="shape"/>
</filter>
</defs>
</svg>
